<?xml version="1.0" encoding="utf-8"?>
<!-- Generator: Adobe Illustrator 19.0.0, SVG Export Plug-In . SVG Version: 6.00 Build 0)  -->
<svg version="1.1" id="a_type" xmlns="http://www.w3.org/2000/svg" xmlns:xlink="http://www.w3.org/1999/xlink" x="0px" y="0px"
	 viewBox="-703 285 512 512" style="enable-background:new -703 285 512 512;" xml:space="preserve">
<style type="text/css">
	.st0{fill:#FF3F62;}
	.st1{fill:#D9EEF7;}
	.st2{fill:#FFFFFF;}
	.st3{fill:#4C5B66;}
</style>
<path class="st0" d="M-313,599c0,100.1-81.2,181.3-181.3,181.3S-675.7,699.1-675.7,599c0-128,181.4-309.3,181.4-309.3
	S-313,471-313,599z"/>
<circle class="st1" cx="-366.3" cy="513.7" r="160"/>
<path class="st2" d="M-494.3,727v-21.3c-58.9-0.1-106.6-47.8-106.7-106.7h-21.3C-622.3,669.7-565,726.9-494.3,727z"/>
<path class="st3" d="M-355.6,428.3h-21.3c-17.7,0-32,14.3-32,32v128h21.3v-64h42.7v64h21.3v-128
	C-323.6,442.7-337.9,428.3-355.6,428.3z M-387.6,503v-42.7c0-5.9,4.8-10.7,10.7-10.7h21.3c5.9,0,10.7,4.8,10.7,10.7V503H-387.6
	L-387.6,503z"/>
</svg>
