<?xml version="1.0" encoding="utf-8"?>
<!-- Generator: Adobe Illustrator 19.0.0, SVG Export Plug-In . SVG Version: 6.00 Build 0)  -->
<svg version="1.1" id="Calque_1" xmlns="http://www.w3.org/2000/svg" xmlns:xlink="http://www.w3.org/1999/xlink" x="0px" y="0px"
	 viewBox="-180 272 250 250" style="enable-background:new -180 272 250 250;" xml:space="preserve">
<style type="text/css">
	.st0{fill:#FDFDFD;}
	.st1{fill:#E9C3BB;}
	.st2{fill:#5C5C74;}
	.st3{fill:#FACAB8;}
	.st4{fill:#6EA9DC;}
</style>
<rect id="XMLID_1_" x="-180" y="272" class="st0" width="250" height="250"/>
<g id="XMLID_2_">
	<g id="XMLID_67_">
		<path id="XMLID_68_" class="st1" d="M-77,479.3c-17.7-6.2-25.1-24.2-31.7-49.2c-3.9-14.6-5.5-24.5-5.5-42.7
			c0-43.7,22.6-59.8,58.5-59.8s60.1,9.2,60.1,52.9C4.4,446-17,484.3-55.7,484.3"/>
	</g>
	<g id="XMLID_38_">
		<path id="XMLID_48_" class="st2" d="M-55.5,486c-0.9,0-1.6-0.7-1.6-1.6s0.7-1.6,1.6-1.6c37.2,0,58.6-37.3,58.6-102.2
			c0-42.5-23.4-51.2-58.6-51.2c-18.6,0-32.2,4.3-41.6,13.1c-10.2,9.5-15.2,24.6-15.2,45.1c0,18.4,1.7,28.2,5.4,42.2
			c9,34.3,18.4,43.7,30.7,48.1c0.9,0.3,1.3,1.2,0.9,2.1c-0.3,0.9-1.2,1.3-2.1,0.9c-17.9-6.3-25.8-23.9-32.7-50.2
			c-3.7-14.2-5.5-24.3-5.5-43.1c0-41.3,19.6-61.3,60.1-61.3c32,0,61.7,6.5,61.7,54.4C6.1,447.6-16.3,486-55.5,486z"/>
	</g>
	<g id="XMLID_10_">
		<path id="XMLID_37_" class="st2" d="M-54.9,428.3c-0.6,0-1.3-0.1-2-0.1c-4.3-0.6-6.3-4-6.3-4.2c-0.4-0.8-0.1-1.7,0.7-2.2
			c0.8-0.4,1.7-0.1,2.2,0.7c0.1,0.1,1.3,2.2,3.9,2.5c2.8,0.3,4.9-0.3,5.8-1.6c0.7-1,0.6-2.4-0.3-3.7c-2.4-3.9-6.5-17-5.3-21.4
			c0.3-0.9,1.1-1.4,2-1.1s1.4,1.1,1.1,2c-0.9,3.1,2.5,15.2,4.9,18.9c1.5,2.3,1.5,5.1,0.2,7.1C-49.3,427.2-51.8,428.3-54.9,428.3z"/>
	</g>
	<g id="XMLID_27_">
		<path id="XMLID_9_" class="st2" d="M-87.2,399c-0.3,0-0.8-0.2-1.1-0.4c-0.7-0.6-0.7-1.6-0.1-2.2c2.1-2.2,5.1-3.4,7.8-3.1
			c2.3,0.3,4.3,1.5,5.5,3.3c0.5,0.8,0.3,1.7-0.5,2.2c-0.8,0.5-1.7,0.3-2.2-0.5c-0.7-1-1.7-1.6-3.1-1.8c-1.9-0.2-3.8,0.6-5.2,2.2
			C-86.4,398.7-86.8,399-87.2,399z"/>
	</g>
	<g id="XMLID_3_">
		<path id="XMLID_4_" class="st2" d="M-23.9,399c-0.4,0-0.9-0.2-1.1-0.5c-1.5-1.5-3.5-2.3-5.6-2.2c-1.7,0.1-3.1,0.9-4,2
			c-0.5,0.7-1.6,0.9-2.2,0.3s-0.9-1.6-0.3-2.2c1.5-1.9,3.8-3.1,6.4-3.3c3-0.2,5.9,0.9,8.1,3.2c0.6,0.7,0.6,1.6-0.1,2.2
			C-23.1,398.8-23.5,399-23.9,399z"/>
	</g>
	<g id="XMLID_23_">
		<path id="XMLID_24_" class="st2" d="M-56.3,448.5c-4.1,0-7.6-1.5-9.3-4c-0.5-0.7-0.3-1.7,0.4-2.2c0.7-0.5,1.7-0.3,2.2,0.4
			c1.2,1.7,4,2.8,7.2,2.7c3.6-0.1,6.9-1.6,8-3.5c0.4-0.8,1.5-1,2.2-0.5c0.8,0.4,1,1.5,0.5,2.2c-1.7,2.9-5.9,4.9-10.6,5.1
			C-55.9,448.5-56.1,448.5-56.3,448.5z"/>
	</g>
	<g id="XMLID_18_">
		<g id="XMLID_21_">
			<path id="XMLID_22_" class="st3" d="M-108.7,425.2c-8.4-0.7-13.2-9.2-12.4-16.4c0.8-7.2,8.2-9,13.8-7.4"/>
		</g>
		<g id="XMLID_19_">
			<path id="XMLID_20_" class="st2" d="M-108.7,426.9c-0.1,0-0.1,0-0.2,0c-3.9-0.3-7.3-2.2-10-5.3c-2.9-3.5-4.4-8.4-3.9-12.8
				c0.3-3.2,1.8-5.7,4.3-7.3c3.1-2.1,7.5-2.6,11.5-1.4c0.9,0.3,1.3,1.1,1.1,2c-0.3,0.9-1.1,1.3-2,1.1c-3.1-0.9-6.6-0.5-8.9,0.9
				c-1.7,1.1-2.7,2.8-2.9,5.1c-0.3,3.6,0.9,7.7,3.2,10.5c1.5,1.7,3.9,3.9,7.8,4.1c0.9,0.1,1.6,0.9,1.5,1.7
				C-107.1,426.3-107.8,426.9-108.7,426.9z"/>
		</g>
	</g>
	<g id="XMLID_13_">
		<g id="XMLID_16_">
			<path id="XMLID_17_" class="st3" d="M-0.8,425c8.5,0.7,14.4-7.7,14.8-14.9c0.3-7.2-6.7-10.2-12.7-9.5"/>
		</g>
		<g id="XMLID_14_">
			<path id="XMLID_15_" class="st2" d="M0.1,426.6c-0.3,0-0.7,0-1-0.1c-0.9-0.1-1.6-0.9-1.5-1.7c0.1-0.9,0.9-1.6,1.7-1.5
				c3.6,0.3,6.3-1.4,7.9-2.8c2.9-2.6,4.9-6.7,5.2-10.6c0.1-2.2-0.5-4-2.1-5.3c-2-1.9-5.5-2.8-8.8-2.4c-0.9,0.1-1.7-0.5-1.7-1.5
				c-0.1-0.9,0.5-1.7,1.5-1.7c4.3-0.5,8.7,0.7,11.4,3.3c2.2,2.1,3.2,4.7,3,7.9c-0.3,4.8-2.7,9.7-6.3,12.8
				C6.7,425.4,3.5,426.6,0.1,426.6z"/>
		</g>
	</g>
	<g id="XMLID_11_">
		<path id="XMLID_12_" class="st4" d="M-96.1,351.3c8.2,9,23.2,20.9,57.6,23.2c15.7,1,25.9-1.3,31.4,5.3c7.3,8.6,8.4,22.5,7.5,29.9
			c-0.3,3.4,12-11.2,12-11.2c-4.9-7.8,5.3-25.1,2.2-48.2c-1.3-9.6-21.4-31-49.3-38.1c-35.3-9-54.6,8.2-63.9,16.8
			c-7.3,6.7-16.7,3.4-24.1,19c-6.7,14.2,4.5,40.7,2.8,49c-0.8,3.7,2.8,2.8,10.2,12c3,3.7,3.4-11.2,4-20.2
			C-105,379.7-96.1,351.3-96.1,351.3z"/>
	</g>
	<g id="XMLID_7_">
		<path id="XMLID_8_" class="st2" d="M0.6,411.7c-0.5,0-1-0.3-1.4-0.6c-0.3-0.3-0.5-0.9-0.5-1.7c0.7-6.2,0.1-20.2-7.1-28.7
			c-3.5-4.1-9.6-4.2-18.7-4.3c-3.4-0.1-7.3-0.1-11.5-0.3c-32.7-2.2-48.1-12.9-56.7-21.7c-2.2,7.1-8.3,27.3-8.8,34.4
			c-0.1,1.6-0.3,3.3-0.3,5.1c-0.9,12.7-1.5,17.2-4.5,17.2l0,0c-0.8,0-1.5-0.3-2.2-1.2c-3.3-4.1-5.8-6.1-7.5-7.5
			c-2.1-1.6-3.5-2.8-2.9-5.8c0.5-2.8-0.7-8.4-1.9-14.5c-2.3-11.4-5.3-25.5-0.9-34.9c5.1-10.7,11.2-13.1,16.6-15.2
			c2.8-1.1,5.5-2.2,7.9-4.3c7-6.4,21.4-19.8,45.9-19.8c6.2,0,12.7,0.9,19.5,2.6c12.7,3.3,25.2,9.7,35.3,18.4
			c8.7,7.4,14.5,15.4,15.2,21c1.6,12.2-0.4,22.8-2.1,31.3c-1.4,7.3-2.5,13.1-0.4,16.4c0.3,0.6,0.3,1.4-0.1,1.9
			C3.1,411.7,1.3,411.7,0.6,411.7z M-53.9,311.1c-23.3,0-37.1,12.7-43.7,18.9c-2.8,2.6-5.9,3.8-8.9,5c-5.3,2.1-10.3,4-14.8,13.6
			c-4,8.5-1.2,22,1,32.9c1.5,6.9,2.6,12.4,1.9,15.8c-0.3,0.9-0.3,1,1.9,2.7c1.6,1.3,4.1,3.4,7.3,7.2c0.8-2.7,1.2-9.3,1.5-13.4
			c0.1-1.8,0.3-3.5,0.3-5.1c0.8-9,9.4-36.5,9.8-37.7c0.2-0.5,0.6-0.9,1.2-1.1c0.5-0.1,1.1,0.1,1.6,0.5c7.9,8.7,22.5,20.4,56.5,22.6
			c4.1,0.3,8,0.3,11.4,0.3c9.6,0.1,16.6,0.2,21.1,5.5c7,8.3,8.4,20.7,8.1,28.4c2.1-2,5.3-5.5,8.3-8.9c-1.9-4.3-0.9-10.2,0.6-17.6
			c1.6-8.2,3.5-18.4,2-30.2C12,341.9-7.6,320.8-35,313.8C-41.7,311.9-47.9,311.1-53.9,311.1z"/>
	</g>
	<g id="XMLID_5_">
		<path id="XMLID_6_" class="st2" d="M-91.1,342.7c0,0,0.3,0.3,0.9,0.7c0.3,0.3,0.7,0.5,0.9,0.9c0.3,0.3,0.9,0.7,1.3,1.1
			c0.4,0.3,0.9,0.9,1.5,1.3s1.1,0.9,1.7,1.4c0.6,0.5,1.2,0.9,1.8,1.5c0.7,0.4,1.2,1,1.9,1.5s1.3,0.9,1.9,1.5
			c0.7,0.4,1.3,0.9,1.9,1.3c0.6,0.4,1.2,0.9,1.8,1.2c0.6,0.3,1.1,0.7,1.6,1c0.5,0.3,0.9,0.6,1.5,0.9c0.4,0.3,0.9,0.5,1.1,0.7
			c0.6,0.3,0.9,0.7,0.9,0.7s-0.4,0-1.1-0.1c-0.3-0.1-0.9-0.1-1.4-0.1c-0.5-0.1-1.1-0.1-1.7-0.3c-0.6-0.2-1.3-0.3-2-0.6
			c-0.7-0.3-1.5-0.5-2.2-0.9c-0.7-0.3-1.5-0.7-2.2-1.1c-0.7-0.4-1.5-0.9-2.2-1.5c-0.7-0.5-1.3-1.1-2-1.6c-0.7-0.5-1.3-1.1-1.7-1.7
			c-0.5-0.6-1-1.2-1.5-1.7c-0.4-0.6-0.9-1.2-1.1-1.7s-0.7-1-0.9-1.6c-0.3-0.4-0.3-0.9-0.5-1.2C-91,343.2-91.1,342.7-91.1,342.7z"/>
	</g>
</g>
</svg>
