<?xml version="1.0" encoding="utf-8"?>
<!-- Generator: Adobe Illustrator 19.0.0, SVG Export Plug-In . SVG Version: 6.00 Build 0)  -->
<svg version="1.1" id="Calque_1" xmlns="http://www.w3.org/2000/svg" xmlns:xlink="http://www.w3.org/1999/xlink" x="0px" y="0px"
	 viewBox="-180 272 250 250" style="enable-background:new -180 272 250 250;" xml:space="preserve">
<style type="text/css">
	.st0{fill:#FDFDFD;}
	.st1{fill:#FBD8CF;}
	.st2{fill:#5E5D74;}
	.st3{fill:#FACAB8;}
	.st4{fill:#6DAAE2;}
</style>
<rect id="XMLID_1_" x="-180" y="272" class="st0" width="250" height="250"/>
<g id="XMLID_2_">
	<g id="XMLID_81_">
		<path id="XMLID_82_" class="st1" d="M-78,472.9c-16.9-5.8-24-23-30.2-46.8c-3.7-13.9-5.2-23.2-5.2-40.6
			c0-41.6,21.5-56.9,55.7-56.9s57.3,8.8,57.3,50.4c0,62.4-20.4,98.9-57.3,98.9"/>
	</g>
	<g id="XMLID_79_">
		<path id="XMLID_80_" class="st2" d="M-57.8,479.3c-0.8,0-1.5-0.7-1.5-1.5c0-0.8,0.7-1.5,1.5-1.5c35.5,0,55.8-35.5,55.8-97.4
			c0-40.5-22.3-48.9-55.8-48.9c-17.7,0-30.7,4.1-39.6,12.5c-9.6,9-14.5,23.5-14.5,42.9c0,17.5,1.7,27,5.2,40.3
			c8.5,32.6,17.5,41.7,29.2,45.8c0.8,0.3,1.2,1.1,0.9,2c-0.3,0.8-1.1,1.2-2,0.9c-17-6-24.5-22.7-31.2-47.9
			c-3.6-13.5-5.2-23.2-5.2-41c0-39.3,18.7-58.4,57.2-58.4c30.5,0,58.8,6.3,58.8,51.9C1.1,442.7-20.3,479.3-57.8,479.3z"/>
	</g>
	<g id="XMLID_38_">
		<path id="XMLID_78_" class="st2" d="M-57.1,424.3c-0.6,0-1.2-0.1-1.9-0.2c-4.2-0.6-5.9-3.8-6-4c-0.4-0.7-0.1-1.7,0.6-2.1
			c0.7-0.4,1.7-0.1,2.1,0.6c0.1,0.1,1.1,2.1,3.7,2.4c2.7,0.4,4.6-0.2,5.5-1.6c0.6-1,0.6-2.2-0.2-3.5c-2.2-3.7-6.2-16.1-5-20.4
			c0.2-0.8,1.1-1.3,1.9-1.1c0.8,0.2,1.3,1.1,1.1,1.9c-0.8,2.9,2.4,14.4,4.7,18.1c1.3,2.2,1.4,4.8,0.2,6.7
			C-51.8,423.1-54.1,424.3-57.1,424.3z"/>
	</g>
	<g id="XMLID_23_">
		<path id="XMLID_37_" class="st2" d="M-87.8,396.3c-0.4,0-0.7-0.2-1.1-0.4c-0.6-0.6-0.7-1.5-0.1-2.2c2-2.2,4.8-3.3,7.4-3
			c2.2,0.2,4.1,1.3,5.2,3.1c0.4,0.7,0.3,1.7-0.4,2.1c-0.7,0.4-1.7,0.3-2.1-0.4c-0.6-1-1.7-1.6-2.9-1.8c-1.8-0.2-3.6,0.6-5,2
			C-87,396.1-87.4,396.3-87.8,396.3z"/>
	</g>
	<g id="XMLID_21_">
		<path id="XMLID_22_" class="st2" d="M-27.6,396.3c-0.4,0-0.8-0.2-1.1-0.4c-1.3-1.4-3.4-2.2-5.3-2.1c-1.6,0.1-3,0.7-3.8,1.9
			c-0.5,0.7-1.5,0.8-2.2,0.4c-0.7-0.5-0.8-1.5-0.4-2.2c1.3-1.9,3.6-2.9,6.1-3c2.8-0.2,5.7,1,7.7,3c0.6,0.6,0.6,1.6-0.1,2.2
			C-26.9,396.2-27.1,396.3-27.6,396.3z"/>
	</g>
	<g id="XMLID_19_">
		<path id="XMLID_20_" class="st2" d="M-58.5,443.5c-3.9,0-7.3-1.4-8.9-3.8c-0.4-0.7-0.4-1.6,0.4-2.2c0.7-0.4,1.6-0.4,2.2,0.4
			c1.1,1.6,3.7,2.6,6.9,2.5c3.5-0.1,6.6-1.5,7.6-3.3c0.4-0.7,1.3-1,2.1-0.6c0.7,0.4,1,1.3,0.6,2.1c-1.6,2.7-5.6,4.7-10.1,4.9
			C-58,443.5-58.3,443.5-58.5,443.5z"/>
	</g>
	<g id="XMLID_6_">
		<g id="XMLID_17_">
			<path id="XMLID_18_" class="st3" d="M-108.2,421.3c-8.1-0.7-12.5-8.8-11.9-15.7c0.7-6.9,7.9-8.6,13.1-7"/>
		</g>
		<g id="XMLID_15_">
			<path id="XMLID_16_" class="st2" d="M-108.2,422.8c-0.1,0-0.1,0-0.2,0c-3.7-0.4-7-2.1-9.6-5.1c-2.7-3.5-4.2-8-3.7-12.3
				c0.4-3,1.8-5.4,4.1-7c2.9-2,7.1-2.4,11.1-1.3c0.8,0.3,1.2,1.1,1,1.9c-0.3,0.7-1.1,1.2-1.9,1c-3-0.8-6.3-0.5-8.4,0.9
				c-1.6,1.1-2.5,2.7-2.7,4.9c-0.4,3.5,0.8,7.3,3,10c1.3,1.6,3.7,3.7,7.4,3.9c0.8,0.1,1.5,0.8,1.3,1.7
				C-106.8,422.3-107.5,422.8-108.2,422.8z"/>
		</g>
	</g>
	<g id="XMLID_9_">
		<g id="XMLID_12_">
			<path id="XMLID_5_" class="st3" d="M-5.6,421.1c8.1,0.6,13.7-7.3,14.1-14.2c0.4-6.9-6.5-9.6-12-9"/>
		</g>
		<g id="XMLID_10_">
			<path id="XMLID_11_" class="st2" d="M-4.7,422.7c-0.4,0-0.7,0-1-0.1c-0.8-0.1-1.5-0.8-1.4-1.6c0.1-0.8,0.7-1.5,1.6-1.4
				c3.5,0.3,6-1.2,7.6-2.7c2.8-2.5,4.7-6.4,5-10.1c0.1-2.1-0.5-3.8-2-5.1c-2-1.8-5.2-2.7-8.4-2.3c-0.8,0.1-1.6-0.5-1.7-1.3
				c-0.1-0.8,0.5-1.6,1.3-1.7c4.1-0.5,8.2,0.7,10.9,3.1c2,2,3,4.5,2.9,7.5c-0.3,4.6-2.5,9.3-5.9,12.2C1.5,421.4-1.6,422.7-4.7,422.7
				z"/>
		</g>
	</g>
	<g id="XMLID_7_">
		<path id="XMLID_8_" class="st4" d="M-104.2,400.3c-7.1,16.3,5.9,58.9,8.4,61c8.9,7.1-38.7-5.2-45-21.4
			c-9.1-23.4,19.3-93.6,41.7-105.6c6.9-3.8,26.4-25.4,58-15.2c28.8,9.3,44.7,22.4,55.8,45.7c11.1,23.3,24.6,70.8,14.2,82.3
			c-10.1,11.1-54.1,20.4-48.3,10.1c10.8-19.3,6.6-53.4,6.6-67.5c0-13.2-20.2-14.3-36.5-19.9c-18.3-6.1-39.6-14.2-39.6-14.2
			S-97.6,385.1-104.2,400.3z"/>
	</g>
	<g id="XMLID_3_">
		<path id="XMLID_4_" class="st2" d="M-96.3,464.8c-7.6,0-40.4-10.4-45.8-24.3c-5.2-13.3,1.2-38.7,9-58.2
			c11.7-29.4,24.9-44.9,33.3-49.4c1.1-0.6,2.7-1.8,4.4-3.2c7.4-5.6,19.9-15,37.7-15c5.5,0,11.1,0.9,16.9,2.7
			c28.9,9.4,45.4,22.8,56.8,46.5c6,12.7,12.1,30.7,15.3,45.9c2.9,13.5,5,31.1-1.3,38.1C22.3,456.3-1.7,463-13.4,463l0,0
			c-4.2,0-6.7-0.8-7.9-2.6c-0.4-0.8-0.8-2.2,0.3-4.1c8.6-15.4,7.5-40.4,6.7-57c-0.2-3.8-0.4-7.1-0.4-9.7c0-8.9-11-11.7-23.5-15
			c-3.9-1-8.1-2.1-11.9-3.5c-15.3-5.1-32.9-11.7-38.1-13.6c-1.9,6.4-9.1,30.2-14.9,43.4c-6.6,15.3,5.6,56.4,8.1,59.3
			c0.5,0.4,2,1.6,1.5,3.2C-93.8,464.8-95.8,464.8-96.3,464.8z M-57.7,317.9c-16.8,0-28.8,9-35.9,14.3c-2,1.5-3.6,2.7-4.9,3.5
			c-10,5.4-22.6,24.3-31.9,47.9c-9.5,23.7-13,45.7-9,55.8c4.4,11.4,33,21.7,42,22.4c-2.2-3.3-5.8-15.4-7.8-25.3
			c-2.4-11.7-4.5-27.6-0.5-36.7c6.6-15,15-44.3,15.2-44.5c0.1-0.4,0.4-0.7,0.7-0.9c0.4-0.2,0.8-0.2,1.2-0.1
			c0.2,0.1,21.5,8.1,39.6,14.2c3.8,1.2,7.9,2.3,11.8,3.3c13.3,3.5,25.8,6.6,25.8,18c0,2.6,0.2,5.8,0.4,9.6C-10,416.3-9,442-18,458
			c-0.3,0.5-0.4,0.9-0.4,1.1c0.3,0.4,1.6,1.1,5.2,1.1l0,0c12,0,34.5-7,41-14.1c9.1-10.1-2.2-55.1-14.4-80.5
			c-11.1-23.2-26.5-35.8-55-45C-47.1,318.7-52.4,317.9-57.7,317.9z"/>
	</g>
</g>
</svg>
