<?xml version="1.0" encoding="utf-8"?>
<!-- Generator: Adobe Illustrator 19.0.0, SVG Export Plug-In . SVG Version: 6.00 Build 0)  -->
<svg version="1.1" id="Calque_1" xmlns="http://www.w3.org/2000/svg" xmlns:xlink="http://www.w3.org/1999/xlink" x="0px" y="0px"
	 viewBox="-55 147 500 500" style="enable-background:new -55 147 500 500;" xml:space="preserve">
<style type="text/css">
	.st0{fill:#D69A8E;}
	.st1{fill:#5C5C74;}
	.st2{fill:#FF3F62;}
</style>
<g id="XMLID_25_">
	<g id="XMLID_71_">
		<g id="XMLID_76_">
			<path id="XMLID_77_" class="st0" d="M316.8,410.2c0,12.6-8.2,22.8-18.4,22.8S280,422.9,280,410.2c0-12.6,8.2-18.8,18.4-18.8
				S316.8,397.6,316.8,410.2z"/>
		</g>
		<g id="XMLID_72_">
			<path id="XMLID_73_" class="st1" d="M298.4,436c-11.8,0-21.3-11.6-21.3-25.8c0-13.2,8.4-21.7,21.3-21.7c13,0,21.3,8.5,21.3,21.7
				C319.7,424.4,310.1,436,298.4,436z M298.4,394.4c-9.7,0-15.5,5.9-15.5,15.8c0,11,6.9,19.9,15.5,19.9c8.5,0,15.5-8.9,15.5-19.9
				C313.8,400.3,308.1,394.4,298.4,394.4z"/>
		</g>
	</g>
	<g id="XMLID_64_">
		<g id="XMLID_69_">
			<path id="XMLID_70_" class="st0" d="M109.9,410.2c0,12.6-8.2,22.8-18.4,22.8s-18.4-10.2-18.4-22.8c0-12.6,8.2-18.8,18.4-18.8
				C101.7,391.5,109.9,397.6,109.9,410.2z"/>
		</g>
		<g id="XMLID_65_">
			<path id="XMLID_66_" class="st1" d="M91.5,436c-11.8,0-21.3-11.6-21.3-25.8c0-13.2,8.4-21.7,21.3-21.7c13,0,21.3,8.5,21.3,21.7
				C112.9,424.4,103.3,436,91.5,436z M91.5,394.4c-9.7,0-15.5,5.9-15.5,15.8c0,11,6.9,19.9,15.5,19.9s15.5-8.9,15.5-19.9
				C107,400.3,101.2,394.4,91.5,394.4z"/>
		</g>
	</g>
	<g id="XMLID_62_">
		<path id="XMLID_63_" class="st0" d="M299.1,373.5c0,123.4-42.8,176.4-104.2,176.4S89,500.5,89,373.5c0-76.2,44.5-92.3,105.9-92.3
			S299.1,297.3,299.1,373.5z"/>
	</g>
	<g id="XMLID_58_">
		<path id="XMLID_59_" class="st1" d="M194.9,552.8c-33.5,0-59.9-14.1-78.4-41.9c-20.2-30.3-30.4-76.5-30.4-137.5
			c0-83.9,55-95.2,108.8-95.2c55.6,0,107.1,11.5,107.1,95.2C302,489.1,264,552.8,194.9,552.8z M194.9,284.1
			c-34.5,0-58.1,5.4-74.3,17c-19.3,13.9-28.7,37.6-28.7,72.4c0,143.4,56,173.5,103,173.5c65.3,0,101.2-61.6,101.2-173.5
			C296.2,299.3,255.7,284.1,194.9,284.1z"/>
	</g>
	<g id="XMLID_56_">
		<path id="XMLID_57_" class="st2" d="M192.7,434.7c41.2,0,50.4,25.6,69.6,25.6s32.4-27.4,32.4-27.4s12.2,140.7-98.2,140.7
			S94.2,434.7,94.2,434.7s5.2,25.6,28.7,25.6S148.6,434.7,192.7,434.7z"/>
	</g>
	<g id="XMLID_52_">
		<path id="XMLID_53_" class="st1" d="M196.5,576.6c-29.1,0-52.8-9.5-70.4-28.2C105.9,527,97.5,497.1,94,475.9
			c-3.7-22.9-2.8-40.6-2.7-41.3c0.1-1.5,1.2-2.6,2.7-2.7s2.8,0.9,3.1,2.3c0.2,0.9,5,23.2,25.8,23.2c9,0,14.5-4.1,21.4-9.2
			c9.8-7.3,21.9-16.3,48.4-16.3c25.4,0,39.1,9.4,50,16.9c7.1,4.9,12.7,8.7,19.5,8.7c17.1,0,29.6-25.5,29.8-25.8
			c0.6-1.2,1.9-1.8,3.2-1.6c1.3,0.2,2.3,1.3,2.4,2.6c0.1,0.8,1.6,18.8-1.6,42.1c-2.9,21.7-10.5,52.1-30.4,73.8
			C248.6,567.1,225.3,576.6,196.5,576.6z M97.2,448.9c0.9,22.5,6.3,67.1,33.1,95.5c16.5,17.5,38.7,26.3,66.1,26.3
			c27.1,0,49-8.8,64.9-26.1c28.2-30.7,31-80.7,30.8-101.7c-5.9,8.6-16.4,20.3-29.8,20.3c-8.7,0-15.2-4.5-22.8-9.7
			c-10.3-7.1-23.1-15.9-46.7-15.9c-24.6,0-35.4,8.1-44.9,15.2c-7.2,5.4-14,10.4-24.9,10.4C109.8,463.2,101.8,456,97.2,448.9z"/>
	</g>
	<g id="XMLID_45_">
		<g id="XMLID_50_">
			<path id="XMLID_51_" class="st0" d="M231.2,481.6c-4.3,13.6-19.6,13.4-36.3,13.4s-36,1.7-40-12.2c-4.4-15.5,23.3-17.1,40-17.1
				S235.9,467,231.2,481.6z"/>
		</g>
		<g id="XMLID_46_">
			<path id="XMLID_47_" class="st1" d="M184.8,498c-13.8,0-28.9-1.1-32.7-14.4c-1.2-4.1-0.6-7.8,1.7-10.9c5.1-6.8,18.2-9.9,41.1-9.9
				c15.4,0,32,1.1,37.7,9c1.5,2.1,3,5.6,1.3,10.7c-4.9,15.4-21.7,15.4-37.9,15.4h-1.2c-1.6,0-3.3,0-5,0
				C188.2,498,186.5,498,184.8,498z M194.9,468.7c-25.4,0-33.8,4.1-36.4,7.6c-1.2,1.6-1.4,3.4-0.8,5.7c2.4,8.4,12.1,10.1,27,10.1
				c1.7,0,3.4,0,5.1,0c1.7,0,3.4,0,5.1,0h1.2c17.8,0,28.9-0.8,32.3-11.4c1-3,0.2-4.6-0.5-5.5C223.2,468.7,201.9,468.7,194.9,468.7z"
				/>
		</g>
	</g>
	<g id="XMLID_43_">
		<path id="XMLID_44_" class="st1" d="M129.4,401.9c-0.8,0-1.6-0.3-2.2-1c-1.1-1.2-1-3,0.2-4.1c4.3-3.9,10.2-5.9,15.8-5.3
			c4.5,0.4,8.3,2.4,10.6,5.6c1,1.3,0.7,3.1-0.6,4.1s-3.1,0.7-4.1-0.6c-1.3-1.8-3.6-2.9-6.5-3.2c-4-0.4-8.3,1-11.3,3.8
			C130.8,401.6,130.1,401.9,129.4,401.9z"/>
	</g>
	<g id="XMLID_41_">
		<path id="XMLID_42_" class="st1" d="M258.5,401.9c-0.7,0-1.4-0.2-1.9-0.7c-3.1-2.7-7.5-4.2-12-3.9c-3.5,0.2-6.6,1.5-8.4,3.5
			c-1.1,1.2-2.9,1.3-4.1,0.2s-1.3-2.9-0.2-4.1c2.9-3.2,7.3-5.2,12.4-5.5c6.1-0.3,12,1.6,16.2,5.4c1.2,1.1,1.3,2.9,0.2,4.1
			C260.2,401.6,259.4,401.9,258.5,401.9z"/>
	</g>
	<g id="XMLID_39_">
		<path id="XMLID_40_" class="st2" d="M166.9,222.7c38.9-10.5,79.7,16,98.6,40.2c15.8,20.1,34.3,14.6,48.7,36.6s4.9,63.1-5.5,80.4
			c-10.4,17.4-10.4,17.4-10.4,17.4s-13.6-53.9-34.4-63.1c-20.8-9.1-20.2,12.8-66.6,9.1s-62-31.1-73.2-27.4
			c-11.2,3.7-9.6,23.8-19.2,43.9c-9.6,20.1-15.3,37.5-15.3,37.5S58.7,338.5,71.3,305c9.6-25.6,27.5-16.5,40.3-32.9
			C124.4,255.7,139.7,230,166.9,222.7z"/>
	</g>
	<g id="XMLID_35_">
		<path id="XMLID_36_" class="st1" d="M89.7,400.2c-1.1,0-2.1-0.6-2.6-1.6c-1.3-2.4-31.3-60.4-18.5-94.7c6-16.1,15.2-19.6,24.1-22.9
			c6-2.3,11.7-4.5,16.6-10.7c1.8-2.4,3.7-4.9,5.7-7.6c12-16.2,26.9-36.3,51.1-42.8c6-1.6,12.4-2.4,18.8-2.4
			c33.6,0,65.8,21.9,82.9,43.7c7.1,9.1,14.7,12.5,22.7,16.2c9,4.1,18.2,8.4,26.2,20.5c15.5,23.6,4.9,66.3-5.5,83.5l-10.4,17.4
			c-0.6,1-1.8,1.6-2.9,1.4c-1.2-0.2-2.1-1-2.4-2.2c-3.7-14.6-16.8-54.1-32.7-61.1c-3.1-1.3-5.7-2-8.1-2c-3.8,0-6.9,1.5-11.3,3.6
			c-7.2,3.5-17.1,8.2-35.9,8.2c-3.2,0-6.7-0.1-10.3-0.4c-29-2.3-46.4-13.7-57.8-21.2c-6.4-4.2-11.1-7.3-14.2-6.3
			c-5.2,1.7-7.1,8.9-9.6,18.9c-1.8,7.1-3.9,15.2-7.8,23.4c-9.4,19.7-15.1,37-15.2,37.1c-0.4,1.1-1.4,1.9-2.5,2
			C89.8,400.2,89.8,400.2,89.7,400.2z M254.6,329c3.2,0,6.7,0.8,10.5,2.5c17.5,7.7,29.8,43.4,34.2,58.4l6.9-11.5
			c9.4-15.7,19.6-56,5.6-77.3c-7.1-10.7-15.2-14.5-23.7-18.4c-8.3-3.8-16.9-7.8-24.9-17.9c-15.6-20-46.8-41.4-78.3-41.4
			c-5.9,0-11.7,0.8-17.3,2.2c-22.3,6-36.5,25.2-47.9,40.6c-2,2.7-3.9,5.3-5.8,7.7c-5.9,7.6-12.9,10.2-19.1,12.6
			c-8.4,3.2-15.6,5.9-20.7,19.5c-9.6,25.7,7.8,67.9,15.1,83.7c2.6-6.9,7.1-18.6,13.1-31.2c3.7-7.7,5.7-15.5,7.4-22.4
			c2.8-10.9,5.2-20.3,13.5-23c1-0.3,2-0.5,3.1-0.5c4.8,0,9.5,3.1,16.2,7.5c11,7.2,27.6,18.1,55.1,20.3c3.4,0.3,6.7,0.4,9.8,0.4
			c17.5,0,26.3-4.2,33.4-7.6C245.5,331,249.6,329,254.6,329z"/>
	</g>
	<g id="XMLID_33_">
		<path id="XMLID_34_" class="st1" d="M193.4,442.2c-1.1,0-2.2-0.1-3.3-0.2c-7.5-1-10.8-6.8-10.9-7.1c-0.8-1.4-0.3-3.2,1.2-4
			c1.4-0.8,3.2-0.3,4,1.2c0.1,0.1,2.1,3.5,6.6,4.1c4.7,0.6,8.3-0.4,9.8-2.7c1-1.6,0.8-3.7-0.4-5.6c-4.2-6.5-11.2-28.3-9.1-35.9
			c0.4-1.6,2-2.5,3.6-2c1.6,0.4,2.5,2,2,3.6c-1.4,5.1,4.3,24.8,8.4,31.2c2.5,3.9,2.7,8.4,0.4,11.9
			C203.3,440.2,198.9,442.2,193.4,442.2z"/>
	</g>
	<g id="XMLID_31_">
		<path id="XMLID_32_" class="st1" d="M193.7,487.2c-8.3,0-15-2.9-18.5-7.9c-0.9-1.3-0.6-3.1,0.8-4.1c1.3-0.9,3.2-0.6,4.1,0.8
			c2.3,3.4,7.4,5.4,13.7,5.4l0,0c7.1,0,14-2.6,16.4-6.2c0.9-1.3,2.7-1.7,4.1-0.8c1.3,0.9,1.7,2.7,0.8,4.1
			C210.9,484.4,201.4,487.1,193.7,487.2C193.8,487.2,193.8,487.2,193.7,487.2z"/>
	</g>
	<g id="XMLID_29_">
		<path id="XMLID_30_" class="st1" d="M132.8,294c0,0,0.7,0.4,1.7,1.1c0.5,0.4,1.2,0.8,1.9,1.4c0.7,0.6,1.6,1,2.4,1.6
			c0.9,0.6,1.7,1.3,2.8,1.9c1,0.6,2.1,1.3,3.1,2.1s2.3,1.4,3.4,2.2c1.1,0.7,2.3,1.5,3.5,2.2s2.4,1.4,3.5,2.2c1.2,0.6,2.4,1.3,3.5,2
			c0.6,0.3,1.1,0.7,1.6,1c0.6,0.3,1.1,0.6,1.6,0.9c1.1,0.6,2.1,1.1,3,1.7c0.9,0.6,1.8,1,2.6,1.4s1.5,0.8,2,1.1
			c1.1,0.6,1.8,1.1,1.8,1.1s-0.7,0.1-2,0c-0.7,0-1.5,0-2.4-0.1s-2-0.1-3-0.3c-1.1-0.2-2.3-0.5-3.5-0.8c-0.6-0.2-1.3-0.3-1.9-0.5
			c-0.6-0.2-1.3-0.5-1.9-0.7c-1.3-0.5-2.6-1.1-4-1.7c-1.3-0.7-2.6-1.4-3.9-2.2c-1.3-0.7-2.5-1.6-3.7-2.5c-1.2-0.9-2.3-1.7-3.3-2.7
			s-2-1.9-2.8-2.9c-0.9-0.9-1.6-2-2.3-2.9s-1.3-1.7-1.7-2.5s-0.8-1.5-1.1-2.1C133.1,294.7,132.8,294,132.8,294z"/>
	</g>
	<g id="XMLID_26_">
		<path id="XMLID_28_" class="st1" d="M282.9,335.6c0,0-0.4-0.4-0.9-1.1c-0.3-0.4-0.6-0.8-0.9-1.3s-0.7-1.1-1.1-1.7
			c-0.4-0.6-0.8-1.2-1.2-1.9c-0.4-0.7-0.9-1.4-1.3-2.1s-0.8-1.5-1.3-2.3c-0.5-0.8-0.9-1.5-1.3-2.3c-0.5-0.8-0.9-1.5-1.4-2.3
			c-0.4-0.8-0.9-1.5-1.3-2.2s-0.8-1.5-1.2-2.1c-0.4-0.6-0.8-1.3-1.1-1.9c-0.3-0.6-0.6-1.2-1-1.7c-0.3-0.5-0.6-0.9-0.8-1.3
			c-0.4-0.8-0.7-1.3-0.7-1.3s0.5,0.1,1.4,0.4c0.4,0.1,1,0.3,1.6,0.5c0.3,0.1,0.6,0.2,0.9,0.4c0.3,0.2,0.6,0.4,0.9,0.6
			c0.7,0.4,1.3,0.9,2.1,1.4c0.7,0.5,1.3,1.2,2,1.9c0.7,0.7,1.4,1.4,1.9,2.2c0.6,0.8,1.1,1.7,1.7,2.5c0.9,1.8,1.8,3.6,2.3,5.4
			c0.3,0.9,0.5,1.8,0.7,2.6c0.1,0.9,0.2,1.7,0.3,2.5c0.2,1.5,0,2.8-0.1,3.7C283.1,335.1,282.9,335.6,282.9,335.6z"/>
	</g>
</g>
</svg>
