<?xml version="1.0" encoding="utf-8"?>
<!-- Generator: Adobe Illustrator 19.0.0, SVG Export Plug-In . SVG Version: 6.00 Build 0)  -->
<svg version="1.1" id="Calque_1" xmlns="http://www.w3.org/2000/svg" xmlns:xlink="http://www.w3.org/1999/xlink" x="0px" y="0px"
	 viewBox="0 0 500 500" style="enable-background:new 0 0 500 500;" xml:space="preserve">
<style type="text/css">
	.st0{fill:#FACAB8;}
	.st1{fill:#5C5C74;}
	.st2{fill:#FBD7CE;}
	.st3{fill:#6EA9DC;stroke:#5C5C74;stroke-width:4;stroke-miterlimit:10;}
</style>
<g id="XMLID_1_">
	<g id="XMLID_22_">
		<g id="XMLID_27_">
			<path id="XMLID_30_" class="st0" d="M163.1,274.3c0,12.3-8,22.2-17.9,22.2s-17.9-9.9-17.9-22.2s8-18.3,17.9-18.3
				S163.1,262,163.1,274.3z"/>
		</g>
		<g id="XMLID_23_">
			<path id="XMLID_24_" class="st1" d="M145.2,299.4c-11.4,0-20.7-11.2-20.7-25.1c0-12.8,8.1-21.1,20.7-21.1s20.7,8.3,20.7,21.1
				C165.9,288.1,156.6,299.4,145.2,299.4z M145.2,258.9c-9.4,0-15.1,5.8-15.1,15.4c0,10.7,6.8,19.4,15.1,19.4s15.1-8.7,15.1-19.4
				C160.3,264.7,154.6,258.9,145.2,258.9z"/>
		</g>
	</g>
	<g id="XMLID_20_">
		<path id="XMLID_21_" class="st2" d="M211.2,399.3c-31.5-11-44.7-43-56.3-87.3c-6.8-25.9-9.7-43.4-9.7-75.8
			c0-77.6,40.1-106.2,103.9-106.2S356,146.4,356,224c0,116.3-38.1,184.5-106.8,184.5"/>
	</g>
	<g id="XMLID_18_">
		<path id="XMLID_19_" class="st1" d="M249.1,411.3c-1.6,0-2.8-1.3-2.8-2.8c0-1.6,1.3-2.8,2.8-2.8c66.1,0,104-66.2,104-181.6
			c0-75.6-41.6-91.1-104-91.1c-33,0-57.2,7.6-73.9,23.2c-18,16.8-27.1,43.8-27.1,80.1c0,32.7,3.1,50.2,9.6,75.1
			c15.9,60.8,32.7,77.7,54.5,85.4c1.5,0.5,2.3,2.1,1.7,3.6c-0.5,1.5-2.1,2.3-3.6,1.7c-31.8-11.1-45.8-42.4-58.1-89.3
			c-6.6-25.3-9.8-43.2-9.8-76.5c0-73.3,34.9-109,106.8-109c57,0,109.7,11.7,109.7,96.8C358.8,343,318.8,411.3,249.1,411.3z"/>
	</g>
	<g id="XMLID_16_">
		<path id="XMLID_17_" class="st1" d="M250.3,308.6c-1.1,0-2.3-0.1-3.5-0.2c-7.7-1-11.1-7.2-11.2-7.5c-0.7-1.4-0.2-3.1,1.2-3.8
			c1.4-0.7,3.1-0.2,3.8,1.2c0.1,0.1,2.2,3.9,6.9,4.5c4.9,0.7,8.7-0.4,10.3-2.9c1.2-1.8,1-4.2-0.4-6.5c-4.3-6.9-11.5-30.1-9.4-38.2
			c0.4-1.5,2-2.4,3.5-2s2.4,2,2,3.5c-1.5,5.5,4.5,26.8,8.7,33.7c2.5,4.1,2.7,8.9,0.3,12.6C260.2,306.6,255.8,308.6,250.3,308.6z"/>
	</g>
	<g id="XMLID_14_">
		<path id="XMLID_15_" class="st1" d="M192.9,256.5c-0.7,0-1.4-0.3-1.9-0.8c-1.1-1.1-1.2-2.9-0.1-4c3.7-4,8.9-6,13.9-5.6
			c4.1,0.4,7.7,2.5,9.8,5.8c0.8,1.3,0.4,3.1-0.9,3.9c-1.3,0.8-3.1,0.4-3.9-0.9c-1.2-1.8-3.1-2.9-5.5-3.2c-3.3-0.3-6.7,1.1-9.3,3.8
			C194.4,256.2,193.7,256.5,192.9,256.5z"/>
	</g>
	<g id="XMLID_12_">
		<path id="XMLID_13_" class="st1" d="M305.4,256.5c-0.7,0-1.5-0.3-2.1-0.9c-2.5-2.7-6.2-4.1-9.9-3.9c-3,0.2-5.6,1.4-7.1,3.5
			c-1,1.2-2.7,1.5-4,0.5c-1.2-1-1.5-2.7-0.5-4c2.6-3.4,6.7-5.4,11.3-5.7c5.3-0.3,10.6,1.8,14.3,5.6c1.1,1.1,1,2.9-0.1,4
			C306.8,256.2,306.1,256.5,305.4,256.5z"/>
	</g>
	<g id="XMLID_10_">
		<path id="XMLID_11_" class="st1" d="M247.7,344.5c-7.4,0-13.5-2.6-16.6-7.1c-0.9-1.3-0.6-3.1,0.7-4s3.1-0.6,4,0.7
			c2.1,3.1,7,4.8,12.9,4.6c6.4-0.2,12.2-2.8,14.2-6.2c0.8-1.4,2.5-1.8,3.9-1s1.8,2.5,1,3.9c-3,5.2-10.4,8.7-18.9,9
			C248.5,344.5,248.1,344.5,247.7,344.5z"/>
	</g>
	<g id="XMLID_5_">
		<g id="XMLID_8_">
			<path id="XMLID_9_" class="st0" d="M346.3,302.7c15.2,1.1,25.6-13.6,26.3-26.5s-12-18.1-22.4-16.8"/>
		</g>
		<g id="XMLID_6_">
			<path id="XMLID_7_" class="st1" d="M348,305.6c-0.6,0-1.2,0-1.9-0.1c-1.6-0.1-2.7-1.5-2.6-3.1s1.5-2.7,3.1-2.6
				c6.5,0.5,11.2-2.4,14.1-4.9c5.3-4.6,8.8-11.8,9.2-18.9c0.2-3.9-1-7.1-3.6-9.5c-3.5-3.3-9.7-5-15.7-4.3c-1.6,0.2-3-0.9-3.2-2.5
				s0.9-3,2.5-3.2c7.7-0.9,15.5,1.3,20.3,5.8c3.8,3.6,5.7,8.4,5.4,14c-0.5,8.5-4.7,17.3-11.1,22.8C359.6,303.4,354,305.6,348,305.6z
				"/>
		</g>
	</g>
	<path id="XMLID_4_" class="st3" d="M352.9,259.6c15.1-45.3,15.1-83.5,7.4-120.5c-4-19.4-12.7-34.5-12.7-34.5
		c-19.8,4.7-25-7.3-78.3-14.5c-38.3-5.2-55.8,7-62.7,14.3c0,0-12.3-6.2-37.5,4.9c-22.9,10.1-42.4,36.3-28.6,118.5
		c4.1,33.1,15.1,63.4,15.1,63.4s-5-65.4,5-91.3c0.5-1.2,1-2.4,1.6-3.6l5.1-7.5c14.2-16.2,40.5-18.6,50.3-9.1
		c11.7,11.3,31.9,10,31.9,10s20.2,1.3,31.9-10c11.8-11.3,47-5.7,57.1,20.2c10.1,25.8,5,91.3,5,91.3S348.4,278,352.9,259.6z"/>
</g>
</svg>
