<?xml version="1.0" encoding="utf-8"?>
<!-- Generator: Adobe Illustrator 19.0.0, SVG Export Plug-In . SVG Version: 6.00 Build 0)  -->
<svg version="1.1" id="Calque_1" xmlns="http://www.w3.org/2000/svg" xmlns:xlink="http://www.w3.org/1999/xlink" x="0px" y="0px"
	 viewBox="-709 291 500 500" style="enable-background:new -709 291 500 500;" xml:space="preserve">
<style type="text/css">
	.st0{fill:#915E5C;}
	.st1{fill:#5C5C74;}
	.st2{fill:#663E3B;}
	.st3{fill:#82544E;}
	.st4{fill:#4A4A5B;}
</style>
<g id="XMLID_67_">
	<path id="XMLID_68_" class="st0" d="M-494.7,687.3c-32.3-11.3-45.9-44.1-57.8-89.7c-7-26.6-10-44.6-10-77.9
		c0-79.7,41.2-109.1,106.8-109.1s109.8,16.8,109.8,96.5c0,119.4-39.1,189.5-109.8,189.5"/>
</g>
<g id="XMLID_65_">
	<path id="XMLID_66_" class="st1" d="M-455.7,699.6c-1.6,0-2.9-1.3-2.9-2.9s1.3-2.9,2.9-2.9c67.9,0,106.9-68,106.9-186.6
		c0-77.7-42.7-93.6-106.9-93.6c-34,0-58.8,7.8-76,23.9c-18.5,17.3-27.9,45-27.9,82.3c0,33.6,3.2,51.6,9.9,77.1
		c16.4,62.5,33.6,79.9,56,87.7c1.5,0.5,2.3,2.2,1.8,3.7s-2.2,2.3-3.7,1.8c-32.7-11.4-47.1-43.6-59.7-91.7
		c-6.8-26-10.1-44.4-10.1-78.6c0-75.4,35.9-112,109.7-112c58.5,0,112.7,12,112.7,99.4C-343,629.5-384.1,699.6-455.7,699.6z"/>
</g>
<g id="XMLID_30_">
	<path id="XMLID_64_" class="st2" d="M-454.5,594.1c-1.1,0-2.3-0.1-3.6-0.2c-7.9-1.1-11.4-7.4-11.5-7.7c-0.8-1.4-0.2-3.2,1.2-3.9
		c1.4-0.8,3.2-0.2,3.9,1.2c0.1,0.1,2.3,4,7.1,4.6c5,0.7,8.9-0.4,10.5-3c1.2-1.9,1.1-4.4-0.4-6.7c-4.4-7.1-11.9-31-9.7-39.2
		c0.4-1.6,2-2.5,3.6-2.1s2.5,2,2.1,3.6c-1.5,5.7,4.6,27.6,9,34.6c2.6,4.2,2.7,9.2,0.3,12.9C-444.3,592.1-448.8,594.1-454.5,594.1z"
		/>
</g>
<g id="XMLID_27_">
	<path id="XMLID_28_" class="st2" d="M-513.5,540.6c-0.7,0-1.4-0.3-2-0.8c-1.2-1.1-1.2-3-0.1-4.1c3.8-4.1,9.2-6.2,14.3-5.7
		c4.2,0.4,7.9,2.6,10,5.9c0.9,1.4,0.5,3.2-0.9,4c-1.4,0.9-3.2,0.5-4-0.9c-1.2-1.9-3.2-3-5.7-3.3c-3.4-0.3-6.9,1.1-9.5,3.9
		C-511.9,540.2-512.7,540.6-513.5,540.6z"/>
</g>
<g id="XMLID_25_">
	<path id="XMLID_26_" class="st2" d="M-397.9,540.6c-0.8,0-1.5-0.3-2.1-0.9c-2.6-2.7-6.4-4.2-10.2-4c-3.1,0.2-5.7,1.5-7.3,3.6
		c-1,1.3-2.8,1.5-4.1,0.6c-1.3-1-1.5-2.8-0.6-4.1c2.6-3.5,6.9-5.6,11.6-5.9c5.5-0.3,10.9,1.8,14.7,5.8c1.1,1.2,1.1,3-0.1,4.1
		C-396.5,540.3-397.2,540.6-397.9,540.6z"/>
</g>
<g id="XMLID_23_">
	<path id="XMLID_24_" class="st2" d="M-457.1,631c-7.6,0-13.9-2.7-17-7.3c-0.9-1.3-0.6-3.1,0.8-4.1c1.3-0.9,3.1-0.6,4.1,0.8
		c2.2,3.2,7.3,5,13.2,4.8c6.6-0.2,12.6-2.9,14.6-6.4c0.8-1.4,2.6-1.9,4-1c1.4,0.8,1.9,2.6,1,4c-3.1,5.3-10.7,8.9-19.4,9.3
		C-456.3,631-456.7,631-457.1,631z"/>
</g>
<g id="XMLID_18_">
	<g id="XMLID_21_">
		<path id="XMLID_22_" class="st3" d="M-552.6,588.6c-15.3-1.3-24-16.8-22.6-30c1.4-13.2,14.9-16.5,25.2-13.5"/>
	</g>
	<g id="XMLID_19_">
		<path id="XMLID_20_" class="st1" d="M-552.6,591.6c-0.1,0-0.2,0-0.3,0c-7.1-0.6-13.4-4-18.2-9.7c-5.3-6.5-8-15.3-7.1-23.5
			c0.6-5.8,3.3-10.4,7.8-13.4c5.6-3.7,13.6-4.7,21.1-2.5c1.5,0.5,2.4,2.1,2,3.6c-0.5,1.5-2.1,2.4-3.6,2c-5.7-1.7-12.1-1-16.2,1.8
			c-3.1,2.1-4.9,5.2-5.3,9.2c-0.7,6.6,1.5,14,5.8,19.2c2.6,3.1,7.1,7,14.2,7.6c1.6,0.1,2.8,1.6,2.7,3.2
			C-549.8,590.4-551.1,591.6-552.6,591.6z"/>
	</g>
</g>
<g id="XMLID_13_">
	<g id="XMLID_16_">
		<path id="XMLID_17_" class="st3" d="M-355.8,588.1c15.6,1.2,26.3-14,27-27.2c0.7-13.2-12.3-18.6-23.1-17.3"/>
	</g>
	<g id="XMLID_14_">
		<path id="XMLID_15_" class="st1" d="M-354.1,591.1c-0.6,0-1.3,0-1.9-0.1c-1.6-0.1-2.8-1.5-2.7-3.1c0.1-1.6,1.5-2.8,3.1-2.7
			c6.6,0.5,11.5-2.5,14.5-5.1c5.4-4.7,9-12.2,9.4-19.4c0.2-4-1-7.3-3.7-9.8c-3.6-3.4-10-5.2-16.1-4.4c-1.6,0.2-3.1-1-3.2-2.6
			c-0.2-1.6,1-3.1,2.6-3.2c7.9-0.9,15.9,1.3,20.8,6c3.9,3.7,5.8,8.7,5.5,14.4c-0.5,8.8-4.9,17.7-11.4,23.5
			C-342.2,588.8-348,591.1-354.1,591.1z"/>
	</g>
</g>
<g id="XMLID_11_">
	<path id="XMLID_12_" class="st1" d="M-529.2,456.1c15,16.4,42.3,38.2,105.1,42.3c28.6,1.9,47.3-2.3,57.3,9.6
		c13.3,15.7,15.2,41,13.6,54.6c-0.7,6.1,21.8-20.5,21.8-20.5c-8.9-14.3,9.6-45.7,4.1-88c-2.3-17.6-39-56.6-90.1-69.6
		c-64.5-16.4-99.6,14.9-116.7,30.7c-13.3,12.3-30.5,6.2-44,34.8c-12.3,25.9,8.1,74.4,5.1,89.4c-1.4,6.8,5.1,5.1,18.5,21.8
		c5.5,6.8,6.1-20.5,7.4-36.9C-545.6,507.9-529.2,456.1-529.2,456.1z"/>
</g>
<g id="XMLID_7_">
	<path id="XMLID_8_" class="st4" d="M-352.8,566.5c-1,0-1.9-0.4-2.5-1.1c-0.5-0.5-1-1.5-0.9-3.1c1.3-11.3,0.2-36.9-13-52.4
		c-6.5-7.6-17.5-7.7-34.1-7.9c-6.3-0.1-13.4-0.1-21.1-0.6c-59.7-3.9-87.7-23.6-103.6-39.6c-4,13.1-15.1,49.9-16.1,62.9
		c-0.2,2.8-0.4,5.9-0.7,9.2c-1.6,23.3-2.6,31.4-8.1,31.4l0,0c-1.4,0-2.7-0.7-3.9-2.2c-6-7.5-10.6-11.2-13.6-13.6
		c-3.8-3-6.5-5.2-5.4-10.6c1-5-1.2-15.4-3.4-26.4c-4.3-20.7-9.6-46.5-1.5-63.7c9.2-19.5,20.4-23.9,30.3-27.8
		c5.2-2,10.1-3.9,14.4-7.9c12.7-11.7,39.1-36.1,83.8-36.1c11.3,0,23.3,1.6,35.6,4.7c23.1,5.9,46,17.8,64.5,33.7
		c15.8,13.5,26.4,28.2,27.7,38.4c2.9,22.4-0.8,41.6-3.7,57c-2.5,13.3-4.5,23.9-0.8,29.8c0.7,1.1,0.6,2.5-0.2,3.4
		C-348.2,566.5-351.5,566.5-352.8,566.5z M-452.3,382.8c-42.4,0-67.7,23.3-79.8,34.5c-5.1,4.7-10.8,6.9-16.2,9.1
		c-9.7,3.8-18.9,7.4-27.1,24.8c-7.3,15.5-2.2,40.2,1.9,60c2.6,12.6,4.7,22.6,3.4,28.7c-0.4,1.8-0.4,1.9,3.4,4.9
		c3,2.4,7.6,6.1,13.4,13.2c1.4-4.8,2.2-16.9,2.7-24.6c0.2-3.3,0.4-6.4,0.7-9.3c1.4-16.5,17.2-66.7,17.9-68.9c0.3-1,1.1-1.7,2.2-2
		c1-0.2,2.1,0.1,2.8,0.9c14.5,15.8,41,37.3,103.1,41.4c7.6,0.5,14.6,0.6,20.8,0.6c17.6,0.2,30.3,0.3,38.5,10
		c12.8,15.1,15.3,37.8,14.7,51.9c3.8-3.6,9.8-10.1,15.1-16.2c-3.5-7.8-1.5-18.6,1.1-32.1c2.9-15,6.4-33.7,3.6-55.2
		c-2.1-15.9-37.9-54.4-87.9-67.1C-429.9,384.3-441.4,382.8-452.3,382.8z"/>
</g>
<g id="XMLID_5_">
	<path id="XMLID_6_" class="st1" d="M-761.4,198.1c0,0,0.7,0.5,1.7,1.3c0.5,0.4,1.2,1,1.8,1.6c0.7,0.7,1.5,1.2,2.4,2
		c0.8,0.7,1.7,1.5,2.7,2.3s2.1,1.6,3.1,2.5s2.2,1.7,3.3,2.6c1.2,0.8,2.2,1.9,3.4,2.6c1.2,0.8,2.4,1.7,3.5,2.6
		c1.2,0.8,2.4,1.6,3.5,2.4c1.1,0.8,2.2,1.6,3.3,2.2c1.1,0.7,2.1,1.3,3,1.9c0.9,0.7,1.8,1.1,2.6,1.6c0.8,0.4,1.5,0.9,2.1,1.2
		c1.1,0.7,1.8,1.2,1.8,1.2s-0.8,0-2.1-0.1c-0.7-0.1-1.5-0.1-2.5-0.2s-2.1-0.2-3.2-0.6c-1.1-0.3-2.4-0.7-3.6-1.1
		c-1.3-0.4-2.6-1-3.9-1.6c-1.3-0.7-2.7-1.3-4-2.1c-1.3-0.8-2.6-1.7-3.9-2.6s-2.4-2-3.6-3c-1.2-1-2.3-2-3.2-3.2
		c-1-1.1-1.9-2.2-2.7-3.2c-0.8-1.1-1.5-2.2-2.1-3.2c-0.6-1-1.2-1.9-1.6-2.8c-0.4-0.8-0.7-1.6-1-2.2
		C-761.2,198.8-761.4,198.1-761.4,198.1z"/>
</g>
</svg>
