<?xml version="1.0" encoding="utf-8"?>
<!-- Generator: Adobe Illustrator 19.0.0, SVG Export Plug-In . SVG Version: 6.00 Build 0)  -->
<svg version="1.1" id="Calque_1" xmlns="http://www.w3.org/2000/svg" xmlns:xlink="http://www.w3.org/1999/xlink" x="0px" y="0px"
	 viewBox="-180 272 250 250" style="enable-background:new -180 272 250 250;" xml:space="preserve">
<style type="text/css">
	.st0{fill:#FDFDFD;}
	.st1{fill:#D5998E;}
	.st2{fill:#5E5D74;}
	.st3{fill:#6EA9DC;}
</style>
<rect id="XMLID_1_" x="-180" y="272" class="st0" width="250" height="250"/>
<g id="XMLID_25_">
	<g id="XMLID_71_">
		<g id="XMLID_76_">
			<path id="XMLID_77_" class="st1" d="M7.4,403.8c0,6.4-4.2,11.6-9.4,11.6s-9.4-5.2-9.4-11.6c0-6.4,4.2-9.7,9.4-9.7
				S7.4,397.2,7.4,403.8z"/>
		</g>
		<g id="XMLID_72_">
			<path id="XMLID_73_" class="st2" d="M-2,417c-6,0-10.9-5.9-10.9-13.2c0-6.8,4.3-11.1,10.9-11.1c6.7,0,10.9,4.4,10.9,11.1
				C8.9,411,3.9,417-2,417z M-2,395.7c-5,0-7.9,3.1-7.9,8.1c0,5.6,3.5,10.2,7.9,10.2s7.9-4.5,7.9-10.2C5.8,398.7,3,395.7-2,395.7z"
				/>
		</g>
	</g>
	<g id="XMLID_64_">
		<g id="XMLID_69_">
			<path id="XMLID_70_" class="st1" d="M-98.6,403.8c0,6.4-4.2,11.6-9.4,11.6s-9.4-5.2-9.4-11.6c0-6.4,4.2-9.7,9.4-9.7
				C-102.8,394.2-98.6,397.2-98.6,403.8z"/>
		</g>
		<g id="XMLID_65_">
			<path id="XMLID_66_" class="st2" d="M-108,417c-6,0-10.9-5.9-10.9-13.2c0-6.8,4.3-11.1,10.9-11.1c6.7,0,10.9,4.4,10.9,11.1
				C-97,411-102,417-108,417z M-108,395.7c-5,0-7.9,3.1-7.9,8.1c0,5.6,3.5,10.2,7.9,10.2s7.9-4.5,7.9-10.2
				C-100.1,398.7-103,395.7-108,395.7z"/>
		</g>
	</g>
	<g id="XMLID_62_">
		<path id="XMLID_63_" class="st1" d="M-1.7,384.9c0,63.2-22,90.3-53.3,90.3s-54.2-25.3-54.2-90.3c0-39,22.8-47.3,54.2-47.3
			S-1.7,345.9-1.7,384.9z"/>
	</g>
	<g id="XMLID_58_">
		<path id="XMLID_59_" class="st2" d="M-55,476.7c-17.2,0-30.7-7.2-40.1-21.5c-10.3-15.5-15.6-39.2-15.6-70.4
			c0-43,28.1-48.8,55.7-48.8c28.5,0,54.8,5.9,54.8,48.8C-0.2,444.1-19.7,476.7-55,476.7z M-55,339.1c-17.7,0-29.7,2.8-38.1,8.7
			c-9.9,7.1-14.7,19.2-14.7,37.1c0,73.5,28.6,88.8,52.7,88.8c33.4,0,51.8-31.5,51.8-88.8C-3.2,347-23.9,339.1-55,339.1z"/>
	</g>
	<g id="XMLID_56_">
		<path id="XMLID_57_" class="st3" d="M-56.1,416.3c21.1,0,25.8,13.1,35.7,13.1s16.6-14,16.6-14s6.3,72.1-50.3,72.1
			s-52.4-71.2-52.4-71.2s2.6,13.1,14.7,13.1S-78.8,416.3-56.1,416.3z"/>
	</g>
	<g id="XMLID_52_">
		<path id="XMLID_53_" class="st2" d="M-54.2,489c-14.9,0-27.1-4.9-36.1-14.4c-10.3-11-14.6-26.2-16.4-37.1
			c-1.9-11.7-1.4-20.8-1.4-21.1c0.1-0.7,0.6-1.3,1.4-1.4c0.7-0.1,1.4,0.5,1.6,1.2c0.1,0.5,2.6,11.9,13.2,11.9c4.6,0,7.4-2.1,11-4.7
			c5-3.7,11.2-8.3,24.8-8.3c13,0,20.1,4.8,25.6,8.7c3.6,2.5,6.5,4.5,10,4.5c8.7,0,15.2-13,15.3-13.2c0.3-0.6,1-0.9,1.7-0.8
			s1.2,0.7,1.2,1.3c0.1,0.4,0.8,9.7-0.8,21.5c-1.5,11.1-5.4,26.7-15.6,37.8C-27.5,484.1-39.5,489-54.2,489z M-105.1,423.6
			c0.5,11.6,3.2,34.3,16.9,48.9c8.4,9,19.8,13.5,33.8,13.5c13.9,0,25.1-4.5,33.3-13.4c14.4-15.7,15.8-41.4,15.8-52.1
			c-3.1,4.4-8.4,10.4-15.3,10.4c-4.5,0-7.8-2.3-11.6-5c-5.3-3.6-11.8-8.2-23.9-8.2c-12.6,0-18.2,4.1-23,7.8
			c-3.7,2.8-7.2,5.4-12.7,5.4C-98.6,430.8-102.7,427.2-105.1,423.6z"/>
	</g>
	<g id="XMLID_45_">
		<g id="XMLID_50_">
			<path id="XMLID_51_" class="st1" d="M-36.4,440.3c-2.2,6.9-10.1,6.9-18.6,6.9s-18.4,0.9-20.5-6.3c-2.2-7.9,12-8.7,20.5-8.7
				S-34,432.8-36.4,440.3z"/>
		</g>
		<g id="XMLID_46_">
			<path id="XMLID_47_" class="st2" d="M-60.2,448.7c-7.1,0-14.8-0.6-16.8-7.3c-0.6-2.1-0.3-4,0.9-5.6c2.6-3.5,9.3-5,21-5
				c7.9,0,16.4,0.6,19.3,4.6c0.7,1.1,1.6,2.9,0.7,5.4c-2.5,7.9-11.1,7.9-19.4,7.9H-55c-0.8,0-1.7,0-2.6,0
				C-58.5,448.7-59.4,448.7-60.2,448.7z M-55,433.7c-13,0-17.3,2.1-18.7,3.9c-0.6,0.8-0.7,1.7-0.4,2.9c1.2,4.3,6.2,5.2,13.9,5.2
				c0.9,0,1.7,0,2.6,0c0.9,0,1.7,0,2.6,0h0.6c9.1,0,14.8-0.4,16.5-5.9c0.5-1.6,0.1-2.4-0.2-2.8C-40.5,433.7-51.4,433.7-55,433.7z"/>
		</g>
	</g>
	<g id="XMLID_43_">
		<path id="XMLID_44_" class="st2" d="M-88.6,399.5c-0.4,0-0.8-0.2-1.2-0.5c-0.6-0.6-0.5-1.6,0.1-2.1c2.2-2,5.2-3.1,8.1-2.7
			c2.3,0.2,4.2,1.2,5.4,2.9c0.5,0.7,0.3,1.6-0.3,2.1c-0.7,0.5-1.6,0.3-2.1-0.3c-0.7-0.9-1.8-1.5-3.3-1.7c-2.1-0.2-4.2,0.5-5.8,2
			C-87.8,399.3-88.2,399.5-88.6,399.5z"/>
	</g>
	<g id="XMLID_41_">
		<path id="XMLID_42_" class="st2" d="M-22.5,399.5c-0.3,0-0.7-0.1-1-0.3c-1.6-1.4-3.9-2.1-6.1-2c-1.8,0.1-3.4,0.7-4.3,1.8
			c-0.6,0.6-1.5,0.7-2.1,0.1c-0.6-0.6-0.7-1.5-0.1-2.1c1.5-1.7,3.7-2.6,6.4-2.8c3.1-0.2,6.1,0.8,8.3,2.8c0.6,0.6,0.7,1.5,0.1,2.1
			C-21.6,399.3-22,399.5-22.5,399.5z"/>
	</g>
	<g id="XMLID_39_">
		<path id="XMLID_40_" class="st3" d="M-69.4,307.7c19.9-5.4,40.8,8.2,50.5,20.6c8.1,10.3,17.6,7.5,24.9,18.7s2.5,32.3-2.8,41.2
			c-5.4,8.9-5.4,8.9-5.4,8.9s-6.9-27.6-17.6-32.3c-10.6-4.6-10.3,6.5-34.1,4.6s-31.8-15.8-37.6-13.9c-5.8,1.9-5,12.2-9.8,22.5
			c-4.9,10.2-7.8,19.2-7.8,19.2s-15.8-30.1-9.3-47.3c5-13.1,14.1-8.4,20.6-16.8C-91.1,324.6-83.3,311.5-69.4,307.7z"/>
	</g>
	<g id="XMLID_35_">
		<path id="XMLID_36_" class="st2" d="M-108.9,398.7c-0.6,0-1.1-0.3-1.3-0.8c-0.7-1.2-16-31-9.5-48.5c3.1-8.3,7.8-10.1,12.4-11.7
			c3.1-1.2,6-2.3,8.5-5.4c0.9-1.2,1.9-2.5,2.9-3.9c6.1-8.3,13.8-18.6,26.2-22c3.1-0.8,6.4-1.2,9.7-1.2c17.2,0,33.7,11.2,42.4,22.4
			c3.6,4.6,7.5,6.4,11.6,8.3c4.6,2.1,9.3,4.3,13.5,10.5c7.9,12.1,2.5,33.9-2.8,42.8l-5.4,8.9c-0.3,0.5-0.9,0.8-1.5,0.7
			c-0.6-0.1-1.1-0.5-1.2-1.2c-1.9-7.5-8.6-27.7-16.8-31.3c-1.6-0.7-2.9-1-4.1-1c-2,0-3.5,0.7-5.8,1.8c-3.7,1.8-8.7,4.2-18.4,4.2
			c-1.7,0-3.5-0.1-5.3-0.2c-14.9-1.2-23.8-7-29.6-10.9c-3.3-2.1-5.7-3.7-7.3-3.2c-2.6,0.9-3.6,4.5-5,9.7c-0.9,3.6-2,7.8-4,12
			c-4.8,10.1-7.8,19-7.8,19c-0.2,0.6-0.7,1-1.3,1C-108.8,398.7-108.8,398.7-108.9,398.7z M-24.5,362.2c1.7,0,3.5,0.4,5.4,1.3
			c9,4,15.3,22.2,17.5,29.9l3.5-5.9c4.8-8,10.1-28.6,2.9-39.6c-3.6-5.4-7.8-7.4-12.1-9.4c-4.2-2-8.7-4-12.7-9.2
			c-8-10.2-23.9-21.2-40.1-21.2c-3.1,0-6,0.4-8.8,1.2c-11.4,3.1-18.7,12.9-24.5,20.8c-1,1.4-2,2.7-3,4c-3.1,3.9-6.6,5.2-9.7,6.4
			c-4.3,1.7-8,3.1-10.6,10c-5,13.1,4,34.8,7.8,42.8c1.3-3.5,3.6-9.5,6.7-16c1.9-4,2.9-7.9,3.8-11.5c1.4-5.6,2.6-10.4,6.9-11.8
			c0.5-0.2,1-0.2,1.6-0.2c2.5,0,4.9,1.6,8.3,3.9c5.6,3.7,14.1,9.2,28.2,10.4c1.7,0.2,3.5,0.2,5,0.2c9,0,13.5-2.1,17.1-3.9
			C-29.2,363.2-27,362.2-24.5,362.2z"/>
	</g>
	<g id="XMLID_33_">
		<path id="XMLID_34_" class="st2" d="M-55.8,420.1c-0.6,0-1.2-0.1-1.7-0.1c-3.9-0.5-5.5-3.5-5.6-3.6c-0.4-0.7-0.2-1.7,0.6-2.1
			c0.7-0.4,1.7-0.2,2.1,0.6c0.1,0.1,1.1,1.8,3.4,2.1c2.4,0.3,4.2-0.2,5-1.4c0.5-0.8,0.4-1.9-0.2-2.9c-2.1-3.3-5.7-14.5-4.6-18.4
			c0.2-0.8,1-1.3,1.8-1c0.8,0.2,1.3,1,1,1.8c-0.7,2.6,2.2,12.7,4.3,16c1.3,2,1.4,4.3,0.2,6.1C-50.7,419.1-53,420.1-55.8,420.1z"/>
	</g>
	<g id="XMLID_31_">
		<path id="XMLID_32_" class="st2" d="M-55.7,443.1c-4.2,0-7.7-1.5-9.5-4c-0.5-0.7-0.3-1.6,0.4-2.1c0.7-0.5,1.7-0.3,2.1,0.4
			c1.2,1.7,3.8,2.8,7,2.8l0,0c3.6,0,7.2-1.3,8.4-3.1c0.5-0.7,1.4-0.9,2.1-0.4c0.7,0.5,0.9,1.4,0.4,2.1
			C-46.8,441.7-51.7,443.1-55.7,443.1C-55.6,443.1-55.6,443.1-55.7,443.1z"/>
	</g>
	<g id="XMLID_29_">
		<path id="XMLID_30_" class="st2" d="M-86.9,344.3c0,0,0.3,0.2,0.9,0.6c0.2,0.2,0.6,0.4,1,0.7c0.3,0.3,0.8,0.5,1.2,0.8
			c0.5,0.3,0.9,0.7,1.4,1c0.5,0.3,1.1,0.7,1.6,1.1c0.5,0.4,1.2,0.7,1.7,1.2c0.6,0.3,1.2,0.7,1.8,1.2c0.6,0.3,1.2,0.7,1.8,1.2
			c0.6,0.3,1.2,0.7,1.8,1c0.3,0.2,0.6,0.3,0.8,0.5c0.3,0.2,0.6,0.3,0.8,0.5c0.6,0.3,1.1,0.6,1.6,0.9c0.5,0.3,0.9,0.5,1.3,0.7
			c0.4,0.2,0.7,0.4,1,0.6c0.6,0.3,0.9,0.6,0.9,0.6s-0.3,0.1-1,0c-0.3,0-0.7,0-1.2-0.1c-0.5-0.1-1-0.1-1.6-0.2
			c-0.6-0.1-1.2-0.2-1.8-0.4c-0.3-0.1-0.7-0.2-1-0.2c-0.3-0.1-0.7-0.2-1-0.3c-0.7-0.2-1.3-0.6-2.1-0.9c-0.7-0.3-1.3-0.7-2-1.2
			c-0.7-0.3-1.3-0.8-1.9-1.3c-0.6-0.5-1.2-0.9-1.7-1.4c-0.5-0.5-1-1-1.4-1.5c-0.5-0.5-0.8-1-1.2-1.5c-0.3-0.5-0.7-0.9-0.9-1.3
			c-0.2-0.4-0.4-0.7-0.6-1.1C-86.7,344.6-86.9,344.3-86.9,344.3z"/>
	</g>
	<g id="XMLID_26_">
		<path id="XMLID_28_" class="st2" d="M-10,365.6c0,0-0.2-0.2-0.5-0.6c-0.2-0.2-0.3-0.4-0.5-0.7c-0.2-0.2-0.3-0.6-0.6-0.9
			c-0.2-0.3-0.4-0.6-0.6-1c-0.2-0.3-0.5-0.7-0.7-1.1c-0.2-0.3-0.4-0.7-0.7-1.2c-0.2-0.4-0.5-0.7-0.7-1.2c-0.2-0.4-0.5-0.7-0.7-1.2
			c-0.2-0.4-0.5-0.7-0.7-1.2c-0.2-0.3-0.4-0.7-0.6-1.1c-0.2-0.3-0.4-0.7-0.6-1c-0.2-0.3-0.3-0.6-0.5-0.9c-0.2-0.2-0.3-0.5-0.4-0.7
			c-0.2-0.4-0.3-0.7-0.3-0.7s0.2,0.1,0.7,0.2c0.2,0.1,0.5,0.2,0.8,0.2c0.2,0.1,0.3,0.1,0.5,0.2c0.2,0.1,0.3,0.2,0.5,0.3
			c0.3,0.2,0.7,0.5,1.1,0.7c0.3,0.2,0.7,0.6,1,1c0.3,0.3,0.7,0.7,1,1.2c0.3,0.4,0.6,0.9,0.9,1.3c0.5,0.9,0.9,1.8,1.2,2.8
			c0.2,0.5,0.2,0.9,0.3,1.3c0.1,0.5,0.1,0.9,0.2,1.3c0.1,0.7,0,1.4-0.1,1.9C-9.8,365.3-10,365.6-10,365.6z"/>
	</g>
</g>
</svg>
