<?xml version="1.0" encoding="utf-8"?>
<!-- Generator: Adobe Illustrator 19.0.0, SVG Export Plug-In . SVG Version: 6.00 Build 0)  -->
<svg version="1.1" id="o_type" xmlns="http://www.w3.org/2000/svg" xmlns:xlink="http://www.w3.org/1999/xlink" x="0px" y="0px"
	 viewBox="-703 285 512 512" style="enable-background:new -703 285 512 512;" xml:space="preserve">
<style type="text/css">
	.st0{fill:#FF3F62;}
	.st1{fill:#FFFFFF;}
	.st2{fill:#D9EEF7;}
	.st3{fill:#4C5B66;}
</style>
<path class="st0" d="M-313,599c0,100.1-81.2,181.3-181.3,181.3S-675.7,699.1-675.7,599c0-128,181.4-309.3,181.4-309.3
	S-313,471-313,599z"/>
<g>
	<path class="st1" d="M-494.3,727c-70.7-0.1-127.9-57.3-128-128h21.3c0.1,58.9,47.8,106.6,106.7,106.7V727z"/>
</g>
<circle class="st2" cx="-366.3" cy="513.7" r="160"/>
<g>
	<path class="st3" d="M-345,599h-42.7c-17.7,0-32-14.3-32-32V460.3c0-17.7,14.3-32,32-32h42.7c17.7,0,32,14.3,32,32V567
		C-313,584.7-327.3,599-345,599z M-387.7,449.7c-5.9,0-10.7,4.8-10.7,10.7V567c0,5.9,4.8,10.7,10.7,10.7h42.7
		c5.9,0,10.7-4.8,10.7-10.7V460.3c0-5.9-4.8-10.7-10.7-10.7h-42.7V449.7z"/>
</g>
</svg>
