<?xml version="1.0" encoding="utf-8"?>
<!-- Generator: Adobe Illustrator 19.0.0, SVG Export Plug-In . SVG Version: 6.00 Build 0)  -->
<svg version="1.1" id="Layer_1" xmlns="http://www.w3.org/2000/svg" xmlns:xlink="http://www.w3.org/1999/xlink" x="0px" y="0px"
	 viewBox="-550.5 210 660 660" style="enable-background:new -550.5 210 660 660;" xml:space="preserve">
<style type="text/css">
	.st0{opacity:5.000000e-002;}
</style>
<path class="st0" d="M-7,498.5c-4.4-103.2-86.2-133.9-133.2-133.9s-80.3,25.4-80.3,25.4c-14.8-10.6-45.9-26.6-78.4-26.6
	c-51.8,0-105.8,33.4-126.5,88.5s-4.2,119.1,52.1,184c56.2,64.8,153.1,113.7,153.1,113.7C-121.3,703.6-2.8,595.7-7,498.5z
	 M-220.1,450.8c0,0,47.3,57.6,47.3,84.5c0,30.8-33.6,44.9-43.6,44.9s-25.8-1.9-40.2-16.2c-14.4-14.3-14.1-38.6,1.3-64.4
	C-240,473.8-220.1,450.8-220.1,450.8z M-84,587.3c-44.8,67.4-136.3,113.1-136.3,113.1C-322.5,650.2-392.2,562-392.2,499.9
	s54.3-93.4,90.4-93.4s54.6,17.4,54.6,17.4s-58.2,64.3-58.2,110.5s39.7,84,86,84c46.2,0,84-42.8,84-86c0-43.1-57.9-108.3-57.9-108.3
	c8.7-6.3,22.6-16.9,53.7-16.9c66.9,0,89.9,60.9,89.9,91.1C-49.9,528.8-61.6,553.9-84,587.3z"/>
<g class="st0">
	<path d="M-220.5,870c-44.5,0-87.8-8.7-128.5-25.9c-39.3-16.6-74.6-40.4-104.9-70.7c-30.3-30.3-54.1-65.6-70.7-104.9
		c-17.2-40.7-25.9-83.9-25.9-128.5c0-44.5,8.7-87.8,25.9-128.5c16.6-39.3,40.4-74.6,70.7-104.9c30.3-30.3,65.6-54.1,104.9-70.7
		c40.7-17.2,83.9-25.9,128.5-25.9c44.5,0,87.8,8.7,128.5,25.9c39.3,16.6,74.6,40.4,104.9,70.7c30.3,30.3,54.1,65.6,70.7,104.9
		c17.2,40.7,25.9,83.9,25.9,128.5c0,44.5-8.7,87.8-25.9,128.5c-16.6,39.3-40.4,74.6-70.7,104.9c-30.3,30.3-65.6,54.1-104.9,70.7
		C-132.7,861.3-176,870-220.5,870z M-220.5,247.8c-161.1,0-292.2,131.1-292.2,292.2s131.1,292.2,292.2,292.2
		c161.1,0,292.2-131.1,292.2-292.2S-59.4,247.8-220.5,247.8z"/>
</g>
</svg>
