<?xml version="1.0" encoding="utf-8"?>
<!-- Generator: Adobe Illustrator 19.0.0, SVG Export Plug-In . SVG Version: 6.00 Build 0)  -->
<svg version="1.1" id="Calque_1" xmlns="http://www.w3.org/2000/svg" xmlns:xlink="http://www.w3.org/1999/xlink" x="0px" y="0px"
	 viewBox="0 0 500 500" style="enable-background:new 0 0 500 500;" xml:space="preserve">
<style type="text/css">
	.st0{fill:#FBD7CE;}
	.st1{fill:#5C5C74;}
	.st2{fill:#FACAB8;}
	.st3{fill:#6EA9DC;}
</style>
<g id="XMLID_2_">
	<g id="XMLID_81_">
		<path id="XMLID_82_" class="st0" d="M204.5,399.5c-33.2-11.6-47.2-45.4-59.5-92.3c-7.2-27.4-10.3-45.8-10.3-80.1
			c0-82,42.4-112.2,109.8-112.2s112.9,17.3,112.9,99.3c0,122.9-40.2,194.9-112.9,194.9"/>
	</g>
	<g id="XMLID_79_">
		<path id="XMLID_80_" class="st1" d="M244.6,412.2c-1.7,0-3-1.3-3-3s1.3-3,3-3c69.9,0,109.9-70,109.9-191.9
			c0-79.9-43.9-96.3-109.9-96.3c-34.9,0-60.5,8-78.1,24.5c-19,17.8-28.7,46.3-28.7,84.6c0,34.5,3.3,53.1,10.2,79.3
			c16.8,64.2,34.5,82.1,57.6,90.2c1.6,0.5,2.4,2.3,1.8,3.8c-0.5,1.6-2.3,2.4-3.8,1.8c-33.6-11.8-48.4-44.8-61.4-94.4
			c-7-26.7-10.4-45.7-10.4-80.9c0-77.5,36.9-115.2,112.8-115.2c60.2,0,115.9,12.4,115.9,102.3C360.5,340,318.3,412.2,244.6,412.2z"
			/>
	</g>
	<g id="XMLID_27_">
		<path id="XMLID_78_" class="st1" d="M245.8,303.6c-1.2,0-2.4-0.1-3.7-0.3c-8.2-1.1-11.7-7.6-11.8-7.9c-0.8-1.5-0.2-3.3,1.2-4.1
			c1.5-0.8,3.3-0.2,4.1,1.2c0.1,0.1,2.3,4.1,7.3,4.8c5.2,0.7,9.1-0.4,10.9-3.1c1.2-1.9,1.1-4.5-0.4-6.9c-4.5-7.3-12.2-31.8-9.9-40.3
			c0.4-1.6,2.1-2.6,3.7-2.1c1.6,0.4,2.6,2.1,2.1,3.7c-1.6,5.8,4.7,28.4,9.2,35.6c2.7,4.3,2.8,9.4,0.3,13.3
			C256.3,301.5,251.7,303.6,245.8,303.6z"/>
	</g>
	<g id="XMLID_23_">
		<path id="XMLID_24_" class="st1" d="M185.2,248.5c-0.7,0-1.5-0.3-2.1-0.8c-1.2-1.1-1.3-3-0.1-4.2c3.9-4.2,9.4-6.4,14.7-5.9
			c4.4,0.4,8.1,2.6,10.3,6.1c0.9,1.4,0.5,3.3-0.9,4.1c-1.4,0.9-3.3,0.5-4.1-0.9c-1.2-1.9-3.3-3.1-5.8-3.4c-3.5-0.3-7.1,1.2-9.8,4
			C186.8,248.2,186,248.5,185.2,248.5z"/>
	</g>
	<g id="XMLID_21_">
		<path id="XMLID_22_" class="st1" d="M304,248.5c-0.8,0-1.6-0.3-2.2-0.9c-2.7-2.8-6.6-4.3-10.5-4.1c-3.1,0.2-5.9,1.5-7.5,3.7
			c-1,1.3-2.9,1.6-4.2,0.6c-1.3-1-1.6-2.9-0.6-4.2c2.7-3.6,7.1-5.8,12-6c5.6-0.3,11.2,1.9,15.1,6c1.1,1.2,1.1,3.1-0.1,4.2
			C305.5,248.3,304.8,248.5,304,248.5z"/>
	</g>
	<g id="XMLID_19_">
		<path id="XMLID_20_" class="st1" d="M243.1,341.6c-7.8,0-14.3-2.8-17.5-7.5c-0.9-1.4-0.6-3.2,0.8-4.2c1.4-0.9,3.2-0.6,4.2,0.8
			c2.2,3.2,7.4,5.1,13.6,4.9c6.7-0.2,12.9-2.9,15-6.5c0.8-1.4,2.7-1.9,4.1-1.1c1.4,0.8,1.9,2.7,1.1,4.1c-3.2,5.5-11,9.2-20,9.5
			C243.9,341.6,243.5,341.6,243.1,341.6z"/>
	</g>
	<g id="XMLID_14_">
		<g id="XMLID_17_">
			<path id="XMLID_18_" class="st2" d="M144.9,298c-15.8-1.4-24.7-17.3-23.3-30.9c1.4-13.6,15.4-16.9,25.9-13.9"/>
		</g>
		<g id="XMLID_15_">
			<path id="XMLID_16_" class="st1" d="M144.9,301c-0.1,0-0.2,0-0.3,0c-7.4-0.6-13.8-4.1-18.7-10c-5.5-6.7-8.2-15.7-7.3-24.2
				c0.6-5.9,3.4-10.7,8.1-13.8c5.7-3.8,14-4.8,21.7-2.6c1.6,0.5,2.5,2.1,2,3.7c-0.5,1.6-2.1,2.5-3.7,2c-5.9-1.7-12.4-1-16.6,1.8
				c-3.2,2.1-5,5.3-5.4,9.5c-0.7,6.8,1.6,14.4,6,19.7c2.7,3.2,7.4,7.2,14.6,7.8c1.7,0.1,2.9,1.6,2.7,3.3
				C147.8,299.8,146.5,301,144.9,301z"/>
		</g>
	</g>
	<g id="XMLID_9_">
		<g id="XMLID_12_">
			<path id="XMLID_13_" class="st2" d="M347.3,297.4c16,1.2,27-14.4,27.8-28c0.8-13.6-12.6-19.1-23.7-17.8"/>
		</g>
		<g id="XMLID_10_">
			<path id="XMLID_11_" class="st1" d="M349.1,300.5c-0.7,0-1.3,0-2-0.1c-1.7-0.1-2.9-1.6-2.8-3.2c0.1-1.7,1.5-2.9,3.2-2.8
				c6.8,0.5,11.9-2.5,14.9-5.2c5.6-4.9,9.3-12.5,9.7-20c0.2-4.1-1-7.5-3.8-10.1c-3.8-3.5-10.2-5.3-16.6-4.6c-1.6,0.2-3.1-1-3.3-2.6
				c-0.2-1.6,1-3.1,2.6-3.3c8.1-1,16.3,1.4,21.4,6.1c4,3.8,6,8.9,5.7,14.8c-0.5,9-5,18.3-11.7,24.1
				C361.4,298.2,355.4,300.5,349.1,300.5z"/>
		</g>
	</g>
	<g id="XMLID_7_">
		<path id="XMLID_8_" class="st3" d="M152.9,256.4c-14,32.1,11.7,116.2,16.6,120.2c17.4,14-76.3-10.4-88.7-42.1
			c-18-46.1,38.1-184.3,82.1-208.3c13.7-7.5,52.1-50.1,114.2-30c56.9,18.3,88.1,44.1,110.2,90.1s48.6,139.6,28,162.3
			c-20,22-106.7,40.3-95.3,20c21.2-38.1,13.2-105.2,13.2-133.2c0-26-39.8-28.3-72.1-39.1c-36.1-12-78.1-28-78.1-28
			S166,226.5,152.9,256.4z"/>
	</g>
	<g id="XMLID_3_">
		<path id="XMLID_4_" class="st1" d="M168.3,383.7c-14.9,0-79.5-20.4-90.3-48c-10.2-26.1,2.5-76.3,17.8-114.6
			c23.1-58,49.1-88.4,65.7-97.4c2.2-1.2,5.2-3.5,8.8-6.2c14.7-11,39.3-29.5,74.4-29.5c10.9,0,22.1,1.8,33.3,5.5
			c57.2,18.5,89.6,45,112,91.7c11.9,25,23.8,60.5,30.2,90.6c5.7,26.6,9.8,61.2-2.7,75c-14.9,16.4-62.3,29.8-85.3,29.8c0,0,0,0,0,0
			c-8.4,0-13.4-1.7-15.4-5.1c-0.9-1.6-1.6-4.3,0.5-8.1c16.9-30.3,14.8-79.7,13.4-112.5c-0.3-7.5-0.6-14-0.6-19.3
			c0-17.6-21.5-23.1-46.5-29.6c-7.8-2-15.9-4.1-23.6-6.7c-30.2-10.1-64.9-23-75.2-26.9c-3.7,12.5-18,59.6-29.3,85.4
			c-13.2,30.1,11.1,111.2,15.9,116.8c1,0.8,4,3.2,2.9,6.2C173.4,383.7,169.5,383.7,168.3,383.7z M244.7,93.9
			c-33.1,0-56.7,17.7-70.8,28.3c-3.9,2.9-7,5.3-9.6,6.7c-19.7,10.7-44.4,47.8-63,94.4C82.7,270,75.7,313.3,83.6,333.4
			c8.8,22.5,65.1,42.8,82.9,44.1c-4.3-6.5-11.3-30.3-15.3-49.9c-4.8-23.1-8.9-54.5-1-72.4c12.8-29.4,29.7-87.2,29.9-87.8
			c0.2-0.8,0.8-1.5,1.5-1.8c0.8-0.4,1.6-0.4,2.4-0.1c0.4,0.2,42.4,16.1,78,28c7.5,2.5,15.5,4.6,23.2,6.5c26.2,6.7,51,13.1,51,35.4
			c0,5.1,0.3,11.6,0.6,19c1.4,33.4,3.5,83.9-14.2,115.6c-0.5,1-0.8,1.8-0.6,2.2c0.5,0.8,3.2,2.2,10.2,2.2c0,0,0,0,0,0
			c23.7,0,68-13.8,80.8-27.8c18-19.9-4.5-108.7-28.5-158.9C362.7,142,332.3,117.1,276.2,99C265.5,95.6,255,93.9,244.7,93.9z"/>
	</g>
</g>
</svg>
