<?xml version="1.0" encoding="utf-8"?>
<!-- Generator: Adobe Illustrator 19.0.0, SVG Export Plug-In . SVG Version: 6.00 Build 0)  -->
<svg version="1.1" id="Calque_1" xmlns="http://www.w3.org/2000/svg" xmlns:xlink="http://www.w3.org/1999/xlink" x="0px" y="0px"
	 viewBox="-709 291 500 500" style="enable-background:new -709 291 500 500;" xml:space="preserve">
<style type="text/css">
	.st0{fill:#5C5C74;stroke:#505063;stroke-width:5;stroke-miterlimit:10;}
	.st1{clip-path:url(#SVGID_2_);}
	.st2{fill:#FBD7CE;}
	.st3{fill:#5C5C74;}
	.st4{clip-path:url(#SVGID_4_);}
	.st5{clip-path:url(#SVGID_6_);}
	.st6{clip-path:url(#SVGID_8_);}
	.st7{clip-path:url(#SVGID_10_);}
	.st8{clip-path:url(#SVGID_12_);}
	.st9{clip-path:url(#SVGID_14_);}
	.st10{clip-path:url(#SVGID_16_);}
	.st11{clip-path:url(#SVGID_18_);fill:#FF3F62;stroke:#5C5C74;stroke-width:4;stroke-miterlimit:10;}
	.st12{fill:none;stroke:#505063;stroke-width:5;stroke-miterlimit:10;}
	.st13{fill:#5A5A6D;stroke:#505063;stroke-width:5;stroke-miterlimit:10;}
</style>
<g>
	<g>
		<path class="st0" d="M-531.1,602.6c0,0-37.7,63.9,63.3,84.9s205-31,205-31s-59-23.7-60-53.9c0,0-77,37.9-113,8.9
			S-531.1,602.6-531.1,602.6z"/>
		<path class="st0" d="M-374.5,671.6c0,0,47.8-3.5,62.5-18.8"/>
	</g>
	<g>
		<path class="st0" d="M-573.1,522.8c0,0-10.1-112.8,106.1-133.1c0,0,109-8.4,122.3,117c0,0-10.5,107.2-42.5,130.7
			c0,0-24.6,24.5-71.8,25.5s-74.7-30.5-74.7-30.5S-571.5,583.8-573.1,522.8z"/>
		<g>
			<g>
				<defs>
					<path id="SVGID_1_" d="M-458.2,432.8c-47,0-85.2,38.2-85.2,85.1c-0.2,4.1-3.5,68,29.8,103.5c14.1,15,32.8,22.7,55.5,22.7
						c20.4,0,37.6-7,51.2-20.8c34.7-35.3,34.1-102.4,34-105.2C-373,471-411.2,432.8-458.2,432.8z"/>
				</defs>
				<clipPath id="SVGID_2_">
					<use xlink:href="#SVGID_1_"  style="overflow:visible;"/>
				</clipPath>
				<g id="XMLID_19_" class="st1">
					<g id="XMLID_22_">
						<path id="XMLID_53_" class="st2" d="M-536.3,532.4c0,10.9-7.1,19.8-16,19.8s-16-8.8-16-19.8c0-10.9,7.1-16.2,16-16.2
							C-543.5,516.1-536.3,521.4-536.3,532.4z"/>
					</g>
					<g id="XMLID_20_">
						<path id="XMLID_21_" class="st3" d="M-552.2,554.7c-10.2,0-18.5-10-18.5-22.4c0-11.5,7.2-18.8,18.5-18.8
							c11.2,0,18.5,7.4,18.5,18.8C-533.7,544.7-542,554.7-552.2,554.7z M-552.2,518.7c-8.4,0-13.4,5.1-13.4,13.7
							c0,9.6,6,17.2,13.4,17.2s13.4-7.8,13.4-17.2C-538.8,523.8-543.8,518.7-552.2,518.7z"/>
					</g>
				</g>
			</g>
			<g>
				<defs>
					<path id="SVGID_3_" d="M-458.2,432.8c-47,0-85.2,38.2-85.2,85.1c-0.2,4.1-3.5,68,29.8,103.5c14.1,15,32.8,22.7,55.5,22.7
						c20.4,0,37.6-7,51.2-20.8c34.7-35.3,34.1-102.4,34-105.2C-373,471-411.2,432.8-458.2,432.8z"/>
				</defs>
				<clipPath id="SVGID_4_">
					<use xlink:href="#SVGID_3_"  style="overflow:visible;"/>
				</clipPath>
				<g id="XMLID_17_" class="st4">
					<path id="XMLID_18_" class="st2" d="M-493.4,651.4c-28.1-9.8-39.8-38.2-50.2-77.9c-6-23.1-8.7-38.6-8.7-67.6
						c0-69.1,35.7-94.6,92.6-94.6s95.2,14.6,95.2,83.7c0,103.6-33.9,164.4-95.2,164.4"/>
				</g>
			</g>
			<g>
				<defs>
					<path id="SVGID_5_" d="M-458.2,432.8c-47,0-85.2,38.2-85.2,85.1c-0.2,4.1-3.5,68,29.8,103.5c14.1,15,32.8,22.7,55.5,22.7
						c20.4,0,37.6-7,51.2-20.8c34.7-35.3,34.1-102.4,34-105.2C-373,471-411.2,432.8-458.2,432.8z"/>
				</defs>
				<clipPath id="SVGID_6_">
					<use xlink:href="#SVGID_5_"  style="overflow:visible;"/>
				</clipPath>
				<g id="XMLID_15_" class="st5">
					<path id="XMLID_16_" class="st3" d="M-459.7,662.1c-1.4,0-2.5-1.2-2.5-2.5c0-1.4,1.2-2.5,2.5-2.5c58.9,0,92.6-59,92.6-161.8
						c0-67.4-37.1-81.2-92.6-81.2c-29.4,0-51,6.8-65.9,20.7c-16.1,15-24.2,39.1-24.2,71.4c0,29.1,2.8,44.7,8.6,66.8
						c14.2,54.1,29.1,69.3,48.5,76c1.4,0.5,2,1.9,1.5,3.2c-0.5,1.4-1.9,2-3.2,1.5c-28.3-9.9-40.9-37.8-51.8-79.6
						c-6-22.6-8.8-38.5-8.8-68.2c0-65.4,31.1-97.2,95.2-97.2c50.8,0,97.8,10.5,97.8,86.2C-361.9,601.3-397.5,662.1-459.7,662.1z"/>
				</g>
			</g>
			<g>
				<defs>
					<path id="SVGID_7_" d="M-458.2,432.8c-47,0-85.2,38.2-85.2,85.1c-0.2,4.1-3.5,68,29.8,103.5c14.1,15,32.8,22.7,55.5,22.7
						c20.4,0,37.6-7,51.2-20.8c34.7-35.3,34.1-102.4,34-105.2C-373,471-411.2,432.8-458.2,432.8z"/>
				</defs>
				<clipPath id="SVGID_8_">
					<use xlink:href="#SVGID_7_"  style="overflow:visible;"/>
				</clipPath>
				<g id="XMLID_13_" class="st6">
					<path id="XMLID_14_" class="st3" d="M-458.6,570.6c-1,0-2-0.1-3.1-0.2c-6.9-0.9-9.8-6.4-10-6.7c-0.6-1.3-0.2-2.8,1.1-3.4
						c1.3-0.6,2.8-0.2,3.4,1.1c0.1,0.1,2,3.4,6.2,4.1c4.4,0.6,7.7-0.4,9.1-2.6c1.1-1.6,0.9-3.8-0.3-5.8c-3.8-6.1-10.3-26.9-8.4-34
						c0.4-1.4,1.7-2.2,3.1-1.8s2.2,1.7,1.8,3.1c-1.3,5,4,23.9,7.8,30c2.3,3.7,2.3,7.9,0.3,11.2
						C-449.7,568.8-453.6,570.6-458.6,570.6z"/>
				</g>
			</g>
			<g>
				<defs>
					<path id="SVGID_9_" d="M-458.2,432.8c-47,0-85.2,38.2-85.2,85.1c-0.2,4.1-3.5,68,29.8,103.5c14.1,15,32.8,22.7,55.5,22.7
						c20.4,0,37.6-7,51.2-20.8c34.7-35.3,34.1-102.4,34-105.2C-373,471-411.2,432.8-458.2,432.8z"/>
				</defs>
				<clipPath id="SVGID_10_">
					<use xlink:href="#SVGID_9_"  style="overflow:visible;"/>
				</clipPath>
				<g id="XMLID_11_" class="st7">
					<path id="XMLID_12_" class="st3" d="M-509.7,524.1c-0.6,0-1.3-0.3-1.7-0.7c-1-1-1.1-2.5-0.1-3.6c3.3-3.5,7.9-5.4,12.4-5
						c3.7,0.4,6.9,2.3,8.7,5.1c0.7,1.2,0.4,2.7-0.8,3.5c-1.2,0.7-2.7,0.4-3.5-0.8c-1-1.6-2.8-2.6-4.9-2.8c-2.9-0.3-6,1-8.2,3.4
						C-508.4,523.9-509.1,524.1-509.7,524.1z"/>
				</g>
			</g>
			<g>
				<defs>
					<path id="SVGID_11_" d="M-458.2,432.8c-47,0-85.2,38.2-85.2,85.1c-0.2,4.1-3.5,68,29.8,103.5c14.1,15,32.8,22.7,55.5,22.7
						c20.4,0,37.6-7,51.2-20.8c34.7-35.3,34.1-102.4,34-105.2C-373,471-411.2,432.8-458.2,432.8z"/>
				</defs>
				<clipPath id="SVGID_12_">
					<use xlink:href="#SVGID_11_"  style="overflow:visible;"/>
				</clipPath>
				<g id="XMLID_9_" class="st8">
					<path id="XMLID_10_" class="st3" d="M-409.5,524.1c-0.6,0-1.4-0.3-1.8-0.8c-2.3-2.3-5.5-3.7-8.8-3.5c-2.6,0.2-5,1.3-6.3,3.1
						c-0.8,1.1-2.4,1.4-3.5,0.5c-1.1-0.8-1.4-2.4-0.5-3.5c2.3-3,6-4.9,10.1-5.1c4.8-0.3,9.5,1.5,12.7,5.1c1,1,0.9,2.6-0.1,3.6
						C-408.2,523.9-408.9,524.1-409.5,524.1z"/>
				</g>
			</g>
			<g>
				<defs>
					<path id="SVGID_13_" d="M-458.2,432.8c-47,0-85.2,38.2-85.2,85.1c-0.2,4.1-3.5,68,29.8,103.5c14.1,15,32.8,22.7,55.5,22.7
						c20.4,0,37.6-7,51.2-20.8c34.7-35.3,34.1-102.4,34-105.2C-373,471-411.2,432.8-458.2,432.8z"/>
				</defs>
				<clipPath id="SVGID_14_">
					<use xlink:href="#SVGID_13_"  style="overflow:visible;"/>
				</clipPath>
				<g id="XMLID_7_" class="st9">
					<path id="XMLID_8_" class="st3" d="M-460.8,602.6c-6.6,0-12-2.3-14.8-6.3c-0.8-1.2-0.5-2.7,0.6-3.5c1.2-0.8,2.7-0.5,3.5,0.6
						c1.9,2.7,6.3,4.3,11.5,4.1c5.7-0.2,10.9-2.4,12.6-5.5c0.7-1.2,2.3-1.6,3.4-0.9s1.6,2.3,0.9,3.4c-2.7,4.6-9.3,7.8-16.9,8
						C-460.2,602.6-460.6,602.6-460.8,602.6z"/>
				</g>
			</g>
			<g>
				<defs>
					<path id="SVGID_15_" d="M-458.2,432.8c-47,0-85.2,38.2-85.2,85.1c-0.2,4.1-3.5,68,29.8,103.5c14.1,15,32.8,22.7,55.5,22.7
						c20.4,0,37.6-7,51.2-20.8c34.7-35.3,34.1-102.4,34-105.2C-373,471-411.2,432.8-458.2,432.8z"/>
				</defs>
				<clipPath id="SVGID_16_">
					<use xlink:href="#SVGID_15_"  style="overflow:visible;"/>
				</clipPath>
				<g id="XMLID_30_" class="st10">
					<g id="XMLID_5_">
						<path id="XMLID_6_" class="st2" d="M-373,565.4c13.5,1,22.8-12.1,23.5-23.6c0.6-11.5-10.6-16.1-20-15"/>
					</g>
					<g id="XMLID_3_">
						<path id="XMLID_4_" class="st3" d="M-371.5,568c-0.5,0-1.1,0-1.7-0.1c-1.4-0.1-2.4-1.4-2.3-2.7s1.3-2.4,2.7-2.3
							c5.8,0.5,10-2.2,12.5-4.4c4.7-4.1,7.8-10.6,8.1-16.9c0.2-3.4-0.9-6.3-3.2-8.5c-3.2-3-8.7-4.5-14-3.9c-1.4,0.2-2.6-0.8-2.8-2.3
							c-0.2-1.4,0.8-2.6,2.3-2.8c6.9-0.8,13.8,1.2,18,5.1c3.4,3.2,5.1,7.5,4.8,12.4c-0.5,7.6-4.2,15.4-9.9,20.4
							C-361.2,566-366.2,568-371.5,568z"/>
					</g>
				</g>
			</g>
			<g>
				<defs>
					<path id="SVGID_17_" d="M-458.2,432.8c-47,0-85.2,38.2-85.2,85.1c-0.2,4.1-3.5,68,29.8,103.5c14.1,15,32.8,22.7,55.5,22.7
						c20.4,0,37.6-7,51.2-20.8c34.7-35.3,34.1-102.4,34-105.2C-373,471-411.2,432.8-458.2,432.8z"/>
				</defs>
				<clipPath id="SVGID_18_">
					<use xlink:href="#SVGID_17_"  style="overflow:visible;"/>
				</clipPath>
				<path id="XMLID_28_" class="st11" d="M-518.9,383.4c50.6-26.4,93.2,0,93.2,0c104.9,11.6,68.2,143.9,68.2,143.9h-0.1
					c-2.3-3.1-6.4-4.6-13.2-3.2c1.4-9.7-10.4-21.4-29-35.1c-18.6-13.8-26-33.7-26-33.7s-18.6,35.1-65.2,44.4
					c-46.5,9.3-56.4,15.9-57.7,24.4c-6.8-1.4-10.9,0.2-13.2,3.2h-0.1C-561.9,527.3-590,420.6-518.9,383.4z"/>
			</g>
		</g>
		<path class="st12" d="M-458.2,432.8c-47,0-85.2,38.2-85.2,85.1c-0.2,4.1-3.5,68,29.8,103.5c14.1,15,32.8,22.7,55.5,22.7
			c20.4,0,37.6-7,51.2-20.8c34.7-35.3,34.1-102.4,34-105.2C-373,471-411.2,432.8-458.2,432.8z"/>
		<path class="st13" d="M-475.4,415.4c0,0-71.3,13.3-83.3,82"/>
		<path class="st13" d="M-370,585.1c0,0-7.3,31.7-32.3,50.3"/>
	</g>
</g>
</svg>
