<?xml version="1.0" encoding="utf-8"?>
<!-- Generator: Adobe Illustrator 19.0.0, SVG Export Plug-In . SVG Version: 6.00 Build 0)  -->
<svg version="1.1" id="Calque_1" xmlns="http://www.w3.org/2000/svg" xmlns:xlink="http://www.w3.org/1999/xlink" x="0px" y="0px"
	 viewBox="0 0 500 500" style="enable-background:new 0 0 500 500;" xml:space="preserve">
<style type="text/css">
	.st0{fill:#DBA6A1;}
	.st1{fill:#5C5C74;}
	.st2{fill:#D69A8E;}
	.st3{fill:#6EA9DC;stroke:#5C5C74;stroke-width:4;stroke-miterlimit:10;}
</style>
<g id="XMLID_1_">
	<g id="XMLID_47_">
		<g id="XMLID_52_">
			<path id="XMLID_53_" class="st0" d="M164.2,275.1c0,12.1-7.9,22-17.7,22s-17.7-9.8-17.7-22c0-12.1,7.9-18,17.7-18
				C156.2,257,164.2,262.9,164.2,275.1z"/>
		</g>
		<g id="XMLID_48_">
			<path id="XMLID_49_" class="st1" d="M146.5,299.8c-11.3,0-20.5-11.1-20.5-24.8c0-12.7,8-20.8,20.5-20.8
				c12.4,0,20.5,8.2,20.5,20.8C167,288.7,157.8,299.8,146.5,299.8z M146.5,259.9c-9.3,0-14.9,5.7-14.9,15.2
				c0,10.6,6.7,19.1,14.9,19.1s14.9-8.6,14.9-19.1C161.4,265.5,155.8,259.9,146.5,259.9z"/>
		</g>
	</g>
	<g id="XMLID_45_">
		<path id="XMLID_46_" class="st2" d="M211.7,407c-31.1-10.9-44.1-42.4-55.6-86.3c-6.7-25.6-9.6-42.8-9.6-74.9
			c0-76.6,39.6-104.9,102.7-104.9s105.5,16.2,105.5,92.8c0,114.8-37.6,182.2-105.5,182.2"/>
	</g>
	<g id="XMLID_43_">
		<path id="XMLID_44_" class="st1" d="M249.1,418.8c-1.6,0-2.8-1.3-2.8-2.8c0-1.6,1.3-2.8,2.8-2.8c65.3,0,102.7-65.4,102.7-179.4
			c0-74.7-41.1-90-102.7-90c-32.6,0-56.5,7.5-73,22.9c-17.8,16.6-26.8,43.3-26.8,79.1c0,32.3,3.1,49.6,9.5,74.1
			c15.7,60,32.3,76.8,53.8,84.3c1.5,0.5,2.2,2.1,1.7,3.6s-2.1,2.2-3.6,1.7c-31.4-11-45.3-41.9-57.4-88.2c-6.6-25-9.7-42.7-9.7-75.6
			c0-72.5,34.5-107.7,105.5-107.7c56.3,0,108.4,11.6,108.4,95.6C357.5,351.4,318,418.8,249.1,418.8z"/>
	</g>
	<g id="XMLID_41_">
		<path id="XMLID_42_" class="st1" d="M250.3,317.4c-1.1,0-2.2-0.1-3.4-0.2c-7.6-1-10.9-7.1-11.1-7.4c-0.7-1.4-0.2-3.1,1.2-3.8
			c1.4-0.7,3.1-0.2,3.8,1.2c0.1,0.1,2.2,3.8,6.9,4.5c4.9,0.7,8.5-0.4,10.1-2.9c1.2-1.8,1-4.2-0.3-6.4c-4.2-6.8-11.4-29.8-9.3-37.7
			c0.4-1.5,1.9-2.4,3.4-2s2.4,1.9,2,3.4c-1.4,5.5,4.4,26.5,8.6,33.3c2.5,4.1,2.6,8.8,0.3,12.4C260.1,315.4,255.8,317.4,250.3,317.4z
			"/>
	</g>
	<g id="XMLID_39_">
		<path id="XMLID_40_" class="st1" d="M193.6,265.9c-0.7,0-1.4-0.3-1.9-0.8c-1.1-1.1-1.2-2.8-0.1-4c3.7-3.9,8.8-6,13.8-5.5
			c4.1,0.4,7.6,2.5,9.6,5.7c0.8,1.3,0.4,3-0.9,3.9c-1.3,0.8-3,0.4-3.9-0.9c-1.1-1.8-3.1-2.9-5.4-3.1c-3.2-0.3-6.7,1.1-9.1,3.8
			C195.1,265.6,194.3,265.9,193.6,265.9z"/>
	</g>
	<g id="XMLID_37_">
		<path id="XMLID_38_" class="st1" d="M304.7,265.9c-0.7,0-1.5-0.3-2-0.9c-2.5-2.6-6.1-4.1-9.8-3.9c-2.9,0.2-5.5,1.4-7,3.4
			c-0.9,1.2-2.7,1.5-3.9,0.5c-1.2-0.9-1.5-2.7-0.5-3.9c2.5-3.3,6.6-5.4,11.2-5.6c5.3-0.3,10.5,1.7,14.1,5.6c1.1,1.1,1,2.9-0.1,4
			C306.1,265.6,305.4,265.9,304.7,265.9z"/>
	</g>
	<g id="XMLID_35_">
		<path id="XMLID_36_" class="st1" d="M247.8,352.9c-7.3,0-13.3-2.6-16.4-7c-0.9-1.3-0.6-3,0.7-3.9s3-0.6,3.9,0.7
			c2.1,3,7,4.8,12.7,4.6c6.3-0.2,12.1-2.7,14-6.1c0.8-1.3,2.5-1.8,3.8-1s1.8,2.5,1,3.8c-3,5.1-10.3,8.6-18.7,8.9
			C248.5,352.9,248.1,352.9,247.8,352.9z"/>
	</g>
	<g id="XMLID_30_">
		<g id="XMLID_33_">
			<path id="XMLID_34_" class="st0" d="M345.2,311.6c15,1.1,25.3-13.4,26-26.2c0.7-12.7-11.8-17.8-22.2-16.6"/>
		</g>
		<g id="XMLID_31_">
			<path id="XMLID_32_" class="st1" d="M346.8,314.5c-0.6,0-1.2,0-1.9-0.1c-1.5-0.1-2.7-1.5-2.6-3s1.4-2.7,3-2.6
				c6.4,0.5,11.1-2.4,13.9-4.9c5.2-4.5,8.7-11.7,9-18.7c0.2-3.8-1-7-3.5-9.4c-3.5-3.3-9.6-5-15.5-4.3c-1.5,0.2-2.9-0.9-3.1-2.5
				c-0.2-1.5,0.9-2.9,2.5-3.1c7.6-0.9,15.3,1.3,20,5.7c3.8,3.5,5.6,8.3,5.3,13.8c-0.5,8.4-4.7,17.1-11,22.6
				C358.3,312.3,352.7,314.5,346.8,314.5z"/>
		</g>
	</g>
	<path id="XMLID_29_" class="st3" d="M233.2,82.2c-8.2,32.5,15.2,47,46.6,54.9c31.4,7.9,58.9,6.2,67.1-26.3
		c8.1-32-14.4-50.4-45.8-58.3C269.8,44.6,241.6,49.1,233.2,82.2z"/>
	<path id="XMLID_28_" class="st3" d="M183.4,109.9c56.1-29.3,103.3,0,103.3,0c116.3,12.9,75.6,159.5,75.6,159.5h-0.1
		c-2.5-3.4-7.1-5.1-14.6-3.6c1.6-10.7-11.5-23.7-32.2-38.9c-20.6-15.3-28.8-37.4-28.8-37.4s-20.6,38.9-72.3,49.2
		c-51.6,10.3-62.5,17.6-64,27.1c-7.5-1.5-12.1,0.2-14.6,3.6h-0.1C135.8,269.4,104.6,151.1,183.4,109.9z"/>
</g>
</svg>
